<svg id="Background_Complete" data-name="Background Complete" xmlns="http://www.w3.org/2000/svg" viewBox="0 0 374.48 220.51"><defs><style>.cls-1{fill:#e0e0e0;}.cls-2{fill:#ebebeb;}.cls-3{fill:#f5f5f5;}</style></defs><title>bg</title><path class="cls-1" d="M326.17,198.83V48.56h-3.62v7.16H304.42V52H301.7v3.77h-19v-4.9H279v148ZM301.7,61.74h-19V57.6h19Zm20.85,0H304.42V57.6h18.13Z"/><path class="cls-1" d="M159.82,210V62H156.2v4.89h-19V63.16h-2.71v3.76H116.32V59.77h-3.63V210ZM137.16,68.8h19v4.14h-19Zm-20.84,0h18.13v4.14H116.32Z"/><path class="cls-1" d="M89.57,158.66V106.43h.05v-56H87.84v-3h1.78V46.8h13V40.05h-13V36.8l88.9.67v0a.29.29,0,0,0,.28.28h3.43l.12.5a.19.19,0,0,0,.08.11.18.18,0,0,0,.12,0h1.35l2.62,26.18h-.11a.74.74,0,0,0-.73.74v1h-.61a.69.69,0,0,0-.68.69v1l.8,5.25a.69.69,0,0,0,.68.59h1.57v.89c-.25.33-1,1.38-.69,2a.76.76,0,0,0,.58.41l-7.57,11.66h.41l7.28-11.22-1.66,11.22h.34l1.6-10.81,1.6,10.81h.35L188,77.65l7.28,11.22h.41l-7.58-11.68a.81.81,0,0,0,.59-.41c.29-.61-.39-1.5-.47-1.6a.23.23,0,0,0-.32,0,.23.23,0,0,0,0,.32c.2.25.55.84.42,1.12-.07.13-.27.18-.45.2l0,0a.05.05,0,0,0,0,0h-.1l-.05,0,0,0c-.18,0-.38,0-.44-.17-.16-.33.31-1.14.69-1.61a.24.24,0,0,0,.05-.14v-1h1.57a.69.69,0,0,0,.68-.59l.8-5.25s0-.07,0-.1V67.1a.69.69,0,0,0-.69-.69h-.6v-1a.74.74,0,0,0-.74-.74h-.11l2.62-26.18h1.14a.2.2,0,0,0,.2-.16l.13-.5h8a.29.29,0,0,0,.28-.28v-.84h4.35l-6-7.47h0l-.11-.14h0l-.07-.8a1,1,0,0,0-1-.92h-.46a1,1,0,0,0-1,.92l-.08.8H165.89l-.07-.8a1,1,0,0,0-1-.92h-.46a1,1,0,0,0-.91.56,1.07,1.07,0,0,0-.1.36l-.07.8H132.35l-.07-.8a1,1,0,0,0-1-.92h-.46a1,1,0,0,0-.68.26s0,0,0,0l-.71-.37.21-.4-2.78-1.45-.21.41L88.76,6.12V4.93a.54.54,0,0,0-.54-.53H78.34a.53.53,0,0,0-.53.53v1.5L52.05,31.1H48.59v-.41a.49.49,0,0,0-.47-.51h-8a2.55,2.55,0,0,0-2.44-2.27H36a2.31,2.31,0,0,0-1.38.46,1.89,1.89,0,0,0-.37.32,2.8,2.8,0,0,0-.72,1.9v.53a1.5,1.5,0,0,0-1.35,1.49v2.87h0a.16.16,0,0,0-.16.16v0h-.17v1H32v0a.16.16,0,0,0,.16.16h.51a.16.16,0,0,0,.16-.16v0h.72v5a.56.56,0,0,0,.56.55h2.45v5.9a.79.79,0,0,0,.79.79H50.43a.79.79,0,0,0,.79-.79v-5.9h2.3a.56.56,0,0,0,.56-.55v-5H55v0a.16.16,0,0,0,.16.16h.51a.16.16,0,0,0,.16-.16v0h.49v0a.16.16,0,0,0,.16.16H57a.16.16,0,0,0,.16-.16v0h2.44v0a.16.16,0,0,0,.16.16h.51a.17.17,0,0,0,.17-.16v0h.48v0a.17.17,0,0,0,.17.16h.51a.16.16,0,0,0,.16-.16v0h2.44v0a.16.16,0,0,0,.16.16h.51a.16.16,0,0,0,.16-.16v0h.49v0a.16.16,0,0,0,.16.16h.51a.16.16,0,0,0,.16-.16v0h2.44v0a.17.17,0,0,0,.17.16h.51a.16.16,0,0,0,.16-.16v0h0a1.49,1.49,0,0,0,1.07.46h6.25v2.91h-13V46.8h13v.65h1.78v3H76.94v54.86h0v53.38H64l-4.15,3.75H106.6l-4.15-3.75ZM100.33,41.13h1v4.58h-1Zm-2.33,0h1.7v4.58H98Zm-2.33,0h.61v4.58h-.61Zm-2.33,0H95v4.58H93.34Zm-.72,0h.08v4.58h-.08Zm-1.62,0h.26v4.58H91ZM33.55,35.68h-.7v0a.16.16,0,0,0-.16-.16h0V34.21h.89Zm0-1.93h-.89V32.61a1,1,0,0,1,.89-1Zm17,1.73h0a.16.16,0,0,0-.16.16v0H48.59V35l.87-.83h1.13Zm0-1.73h-.66l.66-.62Zm0-1.25-1.31,1.25h-.69v-2.2h2Zm.45-.95h.53l-.53.51Zm.87,3.93h0a.16.16,0,0,0-.16.16v0h-.49v0a.16.16,0,0,0-.16-.16h0V34.21h.87Zm0-1.73H51V32.69l.87-.83Zm14.32,12h-1V41.13h1Zm2.34,0h-1.7V41.13h1.7Zm2.33,0h-.61V41.13h.61Zm2.33,0h-1.7V41.13h1.7Zm.71,0h-.08V41.13h.08Zm1.62,0h-.25V41.13h.25Zm12.7-.85H87.6V43.53l.66-2.09Zm0-5.37-.18.56H86.91V40l1.35-1.44ZM86.91,61.73v-.55l.51.55ZM87.42,63l-.51.55V63Zm-.51,16.07v-.55l.51.55Zm.51,1.29-.51.55v-.55Zm-.51,16.07v-.54l.51.54Zm.51,1.3-.51.54v-.54ZM86.91,38v-.55h.51Zm1.35-2.9-1.35-1.44V29.84l1.35,4.32Zm0-2.91-1.08-3.42h1.08ZM87,27.5l.32-3.11.74,3.11Zm6.78,8.07h-1l1.74-2.22Zm1.1,0L96.4,31l.1-.13.09.12,1.55,4.59Zm2.45-7.28A.39.39,0,0,1,97.5,28h0a.41.41,0,0,1,.11.12h0a.29.29,0,0,1,0,.16.27.27,0,0,1,0,.16h0a.32.32,0,0,1-.11.12A.39.39,0,0,1,97.36,28.29ZM99,34.91l-.53-1.57.89,1.11Zm-1.44-4.76h5.19l-2.57,3.26Zm3.8,4.75-.35-.45.85-1.09ZM103.74,31l.14-.17.85,2.52-2.26,1.56Zm1.3,3.27.44,1.31h-2.34Zm21.55,1.31h-2.32l.42-1.3ZM125,33.35l.83-2.54L126,31l1.33,3.93Zm-.89-.61L123,32l1.72-1.18Zm-.3.92-.62,1.91h-1.93l-.64-1.92,1.58-1.09Zm-1.61-2.23-1.87-1.28h3.73Zm-.82.56-1.07.74-.65-1.91Zm-1.65,2.27.44,1.31h-2.34Zm-2.57.64L118.42,31l.14-.17.85,2.52Zm-2.28-1.49-2.62-3.26h5.19Zm1.68,0-.5,1.54-.35-.45Zm-2.5,1.09-.36.46-.53-1.57Zm-1.45.46-2.29-1.56.83-2.54.13.17Zm-.69.66h-2.32l.42-1.3Zm-2.49-2.83L108.33,32l1.72-1.18Zm-.3.92-.63,1.91h-1.92l-.65-1.92,1.59-1.09Zm-1.61-2.23-1.87-1.28h3.73Zm-.82.56-1.08.74L105,30.82Zm71.83,5.25-74.34-.56h74.34Zm-50.68-3.9.89,1.11-.36.46Zm2.54,1.11.86-1.09-.51,1.54Zm2.12,1.12,1.9-1.31.44,1.31Zm2.79-1.92,1.58-1.09,1.61,1.1-.62,1.91h-1.93ZM139,35.57l.42-1.3,1.9,1.3Zm3.57-2.23.89,1.11-.36.46Zm2.54,1.11.86-1.09-.5,1.54Zm2.12,1.12,1.9-1.31.44,1.31ZM150,33.65l1.59-1.09,1.6,1.1-.62,1.91h-1.93Zm3.66,1.92.43-1.3,1.89,1.3Zm3.57-2.23.89,1.11-.36.46Zm2.54,1.11.86-1.09-.5,1.54Zm4.91-.8,1.59-1.09,1.6,1.1-.62,1.91H165.3Zm3.66,1.92.43-1.3,1.89,1.3Zm3.58-2.23.89,1.11-.37.46Zm2.53,1.11.86-1.09-.5,1.54Zm2.13,1.12,1.89-1.31.44,1.31Zm5.35,0H180l-.65-1.92,1.59-1.09,1.6,1.1Zm1.09,0,.43-1.3,1.9,1.3Zm5.37,29.05H187l-2.62-26.18h.94a.21.21,0,0,0,.2-.16l.12-.5h3.9l.12.5s0,0,0,.06a.2.2,0,0,0,.16.1H191Zm-1.79-31.28.89,1.11-.36.46Zm2.53,1.11.86-1.09-.5,1.54Zm2.13,1.12,1.89-1.31.44,1.31Zm5.35,0h-1.92L194,33.65l1.59-1.09,1.61,1.1ZM198.12,28a.58.58,0,0,1,.1.12h0a.3.3,0,0,1,.05.16.28.28,0,0,1-.05.16h0a.4.4,0,0,1-.1.12.36.36,0,0,1,0-.58Zm0,2.81-.62,1.93L196.42,32Zm-.67-.66-1.86,1.28-1.88-1.28ZM194.77,32l-1.07.74-.64-1.91ZM192,30.82l.85,2.52-2.26,1.56L191.83,31Zm-1.11-.67-2.58,3.26-2.61-3.26Zm-6.3.66.13.17L186,34.91l-2.28-1.56Zm-1.72,1.93L181.74,32l1.71-1.18Zm-.05-2.59-1.87,1.28L179,30.15ZM180.09,32l-1.07.74-.64-1.91Zm-2.94-1,.13-.17.85,2.52-2.26,1.56Zm-1-.84-2.57,3.26L171,30.15Zm-6.3.66L170,31l1.32,3.93L169,33.35Zm-1.72,1.93L167.06,32l1.71-1.18ZM164.58,28h0a.38.38,0,0,1,.1.12h0a.42.42,0,0,1,0,.16.38.38,0,0,1,0,.16h0a.29.29,0,0,1-.1.12.36.36,0,0,1,0-.58Zm3.51,2.15-1.86,1.28-1.87-1.28ZM165.41,32l-1.07.74-.64-1.91Zm-1.65,2.27.44,1.31h-2.34ZM162.47,31l.13-.17.85,2.52-2.26,1.56Zm-1-.84-2.57,3.26-2.61-3.26Zm-6.3.66.14.17,1.32,3.93-2.28-1.56Zm-1.72,1.93L152.38,32l1.71-1.18Zm-.05-2.59-1.86,1.28-1.87-1.28ZM150.73,32l-1.07.74L149,30.82Zm-2.81-1.17.85,2.52-2.26,1.56L147.79,31Zm-1.12-.67-2.57,3.26-2.61-3.26Zm-6.3.66.13.17L142,34.91l-2.28-1.56Zm-1.72,1.93L137.7,32l1.71-1.18Zm-.05-2.59-1.86,1.28L135,30.15ZM136.05,32l-1.07.74-.65-1.91Zm-3-1,.14-.17.85,2.52-2.26,1.56Zm-1-.84-2.57,3.26-2.62-3.26ZM88.22,7.94a.54.54,0,0,0,.54-.53V6.64L126.4,26.21l-.21.41L129,28.06l.21-.4.69.35a1.09,1.09,0,0,0-.07.24l-.07.8H98.82l-.07-.8a1,1,0,0,0-1-.92h-.45a1,1,0,0,0-.38.07,1,1,0,0,0-.53.49.89.89,0,0,0-.11.36l-.08.87-.1.07h0l-5,6.49H89.62V28.14l-5-20.2Zm-5.9,46.4h1.93l-1,1Zm.05,2-.89.95v-1.9Zm.91-12.51.7.75v.28h-1.4v-.28Zm-.7-2.7H84l-.7.75Zm-1-1.08L81.48,40V37.47h3.6V40l-.08.09ZM84.78,25.9l-.63-.77.46-.56ZM83,17l.33-.43.34.43.37,2.8H82.58Zm-.54,4.09h1.75l.21,1.64-1.09,1.32-1.09-1.32ZM55.18,35.48h0a.16.16,0,0,0-.16.16v0H52.56v0a.17.17,0,0,0-.17-.16h0V34.21h2.81Zm0-1.73H52.37v-2.2h2.81Zm1.33,1.73h0a.16.16,0,0,0-.16.16v0h-.49v0a.16.16,0,0,0-.16-.16h0V34.21h.87Zm0-1.73h-.87v-2.2h.87Zm3.27,1.73h0a.16.16,0,0,0-.16.16v0H57.15v0a.16.16,0,0,0-.16-.16h0V34.21h2.82Zm0-1.73H57v-2.2h2.82Zm1.32,1.73h0a.17.17,0,0,0-.17.16v0h-.48v0a.17.17,0,0,0-.17-.16h0V34.21h.86Zm0-1.73h-.86v-2.2h.86Zm3.28,1.73h0a.16.16,0,0,0-.16.16v0H61.75v0a.16.16,0,0,0-.16-.16h0V34.21h2.82Zm0-1.73H61.56v-2.2h2.82Zm1.32,1.73h0a.16.16,0,0,0-.16.16v0H65v0a.16.16,0,0,0-.16-.16h0V34.21h.87Zm0-1.73h-.87v-2.2h.87ZM69,35.48h0a.17.17,0,0,0-.17.16v0H66.34v0a.16.16,0,0,0-.16-.16h0V34.21H69Zm0-1.73H66.15v-2.2h1.77a1.06,1.06,0,0,1,1,1.06Zm8.8-9.92H70.69a1.49,1.49,0,0,0-1.48,1.48V31.1H52.71l25.1-24v.35a.53.53,0,0,0,.53.53h3.55L78,23.83ZM82.32,71.7h1.93l-1,1Zm.05,2-.89,1V72.76Zm-.05-3.29,1-1,1,1Zm-.84-1.06V67.46l.89.94Zm.84,19.71h1.93l-1,1Zm.05,2-.89,1v-1.9Zm-.05-3.3,1-1,1,1Zm-.84-1v-1.9l.89,1Zm.79,19.86H84.2l-1,1Zm0,2-.89,1v-1.9Zm0-3.45,1-1,1,1Zm-.84-1v-1.9l.89.95Zm.79,19.86H84.2l-1,1Zm0,2-.89,1V125Zm0-3.29,1-1,1,1Zm-.84-1.06v-1.9l.89,1Zm.84,19.71H84.2l-1,1Zm0,2-.89.95v-1.89Zm0-3.29,1-1,1,1ZM81.43,139v-1.89l.89.94ZM78.31,44.86V41.44L79,43.53v1.33Zm0,9.48h1.07l-1.07,3.42Zm0,12.64,1.07,3.43H78.31Zm0,4.72h1.07l-1.07,3.42Zm0,12.65,1.07,3.42H78.31Zm0,4.71h1.07l-1.07,3.43Zm0,12.65,1.07,3.42H78.31Zm0,4.87h1.07L78.26,110Zm0,12.64,1.07,3.43H78.26Zm0,4.72h1.07l-1.07,3.42Zm0,12.64L79.33,140H78.26Zm0,4.72h1.07l-1.07,3.42Zm0,16.07V154l1.07,3.42Zm1.35-1.05L78.26,152v-1l1.35,1.44Zm0-5.79L79.1,150h.51Zm0-1.84H79.1l.51-.55Zm0-2.49-1.35,1.43v-1l1.35-4.31Zm0-7.25-1.35-4.31v-1l1.35,1.43Zm0-5.78-.51-.55h.51Zm0-1.84H79.1l.51-.55Zm0-2.5-1.35,1.44v-1L79.61,125Zm0-7.24-1.35-4.32v-1l1.35,1.44Zm0-5.79-.51-.54h.51Zm0-1.84H79.1l.51-.54Zm0-2.49-1.35,1.44v-1l1.35-4.32Zm0-7.39-1.35-4.32v-1l1.35,1.44Zm0-5.79-.51-.54h.51Zm0-1.84h-.51l.51-.54Zm0-2.49L78.31,95.4v-1l1.35-4.32Zm0-7.24L78.31,82.4v-1l1.35,1.44Zm0-5.79-.51-.55h.51Zm0-1.84h-.51l.51-.55Zm0-2.5L78.31,78v-1l1.35-4.31Zm0-7.24L78.31,65v-1l1.35,1.44Zm0-5.78L79.15,63h.51Zm0-1.84h-.51l.51-.55Zm0-2.5-1.35,1.44v-1l1.35-4.32Zm0-19.18H78.48l-.17-.56v-1L79.66,40Zm0-2-.51-.55h.51Zm.56-14.19h-.49l-.11-1.14.18-.75.57.7Zm.85-6.57-.24.31L81,16.7l.15-.35Zm.36,137.16.89,1-.89.95Zm.84,3,1-1,1,1ZM85,156.32l-.89-.95.89-1Zm0-3.85-1.81,1.92-1.8-1.92V150H85Zm0-3.78H81.43V146.2l1.8-1.92L85,146.2Zm0-4.44-.89-.95.89-.94Zm0-5.3-.89-.95.89-.94Zm0-3.84L83.23,137l-1.8-1.92v-2.49H85Zm0-3.78H81.43v-2.49l1.8-1.92L85,128.84Zm0-4.44-.89-1,.89-1Zm0-5.3-.89-1,.89-1Zm0-3.84-1.81,1.92-1.8-1.92v-2.49H85ZM85,114H81.43v-2.49l1.8-1.92L85,111.47Zm0-4.43-.89-1,.89-1Zm0-5.45-.88-1,.88-.95Zm0-3.84-1.8,1.92-1.8-1.92V97.75h3.6Zm0-3.79h-3.6V94L83.28,92,85.08,94Zm0-4.43-.88-1,.88-.95Zm0-5.3-.88-1,.88-1Zm0-3.85-1.8,1.92-1.8-1.92V80.38h3.6Zm0-3.78h-3.6V76.6l1.8-1.92,1.8,1.92Zm0-4.44-.88-1,.88-.94Zm0-5.3-.88-.95.88-.94Zm0-3.84-1.8,1.92-1.8-1.92V63h3.6Zm0-3.78h-3.6V59.24l1.8-1.92,1.8,1.92Zm0-4.44-.88-.95.88-1Zm.41-40-.12-.91.16.34.2.88Zm.7,5.38.58-.7.18.75-.33,3.22ZM86.86,114v-.54l.51.54Zm.51,1.3-.51.54v-.54Zm-.51,16.07v-.55l.51.55Zm.51,1.29-.51.55v-.55Zm-.51,16.07v-.55l.51.55Zm.51,1.29-.51.55V150Zm.84,7.39H87.14L88.21,154Zm0-5.37-1.35,4.32v-3.84L88.21,151Zm0-4.37-1.35-1.43v-3.84l1.35,4.31Zm0-2.91-1.07-3.42h1.07Zm0-4.71H87.14l1.07-3.42Zm0-5.37L86.86,139v-3.84l1.35-1.43Zm0-4.37-1.35-1.44V125l1.35,4.32Zm0-2.91-1.07-3.42h1.07Zm0-4.71H87.14l1.07-3.43Zm0-5.38-1.35,4.32v-3.84l1.35-1.44Zm0-4.36-1.35-1.44v-3.84L88.21,112Zm0-2.91-1.07-3.42h1.07Zm.05-4.87H87.18l1.08-3.42Zm0-5.37-1.35,4.32v-3.84l1.35-1.44Zm0-4.36L86.91,94V90.12l1.35,4.32Zm0-2.91-1.08-3.43h1.08Zm0-4.72H87.18l1.08-3.42Zm0-5.37-1.35,4.32V82.88l1.35-1.44Zm0-4.37-1.35-1.44V72.76l1.35,4.31Zm0-2.91L87.18,71.7h1.08Zm0-4.71H87.18L88.26,67Zm0-5.37-1.35,4.31V65.51l1.35-1.44Zm0-4.37-1.35-1.44V55.39l1.35,4.32Zm0-2.91-1.08-3.42h1.08Z"/><polygon class="cls-1" points="78.96 41.58 78.82 41.13 78.96 41.13 78.96 41.58"/><polygon class="cls-1" points="87.6 41.13 87.74 41.13 87.6 41.58 87.6 41.13"/><polygon class="cls-1" points="85.08 30.14 85.03 29.9 85.08 29.84 85.08 30.14"/><polygon class="cls-1" points="86.91 35.68 86.91 35.63 86.95 35.68 86.91 35.68"/><polygon class="cls-1" points="48.59 34.21 48.8 34.21 48.59 34.41 48.59 34.21"/><path class="cls-1" d="M69.21,31.84a1.94,1.94,0,0,0-.21-.29h.21Z"/><path class="cls-1" d="M131,28a.38.38,0,0,1,.1.12h0a.42.42,0,0,1,0,.16.38.38,0,0,1,0,.16h0a.29.29,0,0,1-.1.12.1.1,0,0,1,0,0,.2.2,0,0,0,0-.39s0,0,0-.05h0A.24.24,0,0,1,131,28Z"/><polygon class="cls-1" points="100.26 35.57 100.14 35.57 100.2 35.49 100.26 35.57"/><polygon class="cls-1" points="114.94 35.57 114.82 35.57 114.88 35.49 114.94 35.57"/><polygon class="cls-1" points="129.62 35.57 129.5 35.57 129.56 35.49 129.62 35.57"/><polygon class="cls-1" points="144.31 35.57 144.18 35.57 144.24 35.49 144.31 35.57"/><polygon class="cls-1" points="158.99 35.57 158.86 35.57 158.93 35.49 158.99 35.57"/><polygon class="cls-1" points="173.67 35.57 173.55 35.57 173.61 35.49 173.67 35.57"/><polygon class="cls-1" points="188.35 35.57 188.23 35.57 188.29 35.49 188.35 35.57"/><rect class="cls-1" x="154.31" y="88.4" width="67.67" height="6.61"/><polygon class="cls-2" points="372.61 220.51 372.61 201.41 370.28 201.41 370.28 200.91 369.43 200.91 369.43 178.12 364.73 178.12 364.73 172.17 353.82 172.17 353.82 151.85 347.85 151.85 347.85 137.47 340.51 137.47 340.51 116.53 337.89 116.53 337.89 137.47 330.55 137.47 330.55 151.85 324.58 151.85 324.58 172.17 313.68 172.17 313.68 178.12 308.97 178.12 308.97 201.41 307.37 201.41 307.37 168.95 304.74 168.95 304.74 189.76 301.81 189.76 301.81 140.2 299.19 140.2 299.19 161.02 291.85 161.02 291.85 153.34 288.38 153.34 288.38 125.08 286.3 125.08 286.3 124.59 282.83 124.59 282.83 96.34 280.35 96.34 280.35 100.5 239.68 100.5 239.68 87.86 232.74 87.86 232.74 43.01 230.01 43.01 230.01 87.86 220.35 87.86 220.35 100.5 215.88 100.5 215.88 159.97 195.07 159.97 195.07 142.13 202.5 142.13 202.5 138.66 195.07 138.66 195.07 134.2 175.25 134.2 175.25 88.6 170.29 88.6 170.29 81.67 146.99 81.67 146.99 88.6 143.53 88.6 143.53 151.55 132.62 151.55 132.62 180.79 127.04 180.79 127.04 157.5 122.33 157.5 122.33 151.55 111.42 151.55 111.42 131.23 105.45 131.23 105.45 116.85 98.11 116.85 98.11 95.91 95.49 95.91 95.49 116.85 88.15 116.85 88.15 131.23 82.18 131.23 82.18 151.55 71.28 151.55 71.28 157.5 66.57 157.5 66.57 180.79 59.42 180.79 59.42 119.58 56.79 119.58 56.79 140.4 47.37 140.4 47.37 180.79 43.91 180.79 43.91 103.97 40.44 103.97 40.44 75.72 37.96 75.72 37.96 85.71 20.07 94.06 20.07 103.97 11.69 103.97 11.69 180.79 5.89 180.79 5.89 202.88 1.93 202.88 1.93 220.51 372.61 220.51"/><rect class="cls-3" x="254.85" y="103.28" width="2.81" height="2.81"/><rect class="cls-3" x="254.85" y="107.99" width="2.81" height="2.81"/><rect class="cls-3" x="254.85" y="126.82" width="2.81" height="2.81"/><rect class="cls-3" x="254.85" y="131.53" width="2.81" height="2.81"/><rect class="cls-3" x="254.85" y="136.24" width="2.81" height="2.81"/><rect class="cls-3" x="254.85" y="150.36" width="2.81" height="2.81"/><rect class="cls-3" x="254.85" y="155.07" width="2.81" height="2.81"/><rect class="cls-3" x="250.39" y="122.11" width="2.81" height="2.81"/><rect class="cls-3" x="250.39" y="126.82" width="2.81" height="2.81"/><rect class="cls-3" x="250.39" y="131.53" width="2.81" height="2.81"/><rect class="cls-3" x="250.39" y="136.24" width="2.81" height="2.81"/><rect class="cls-3" x="250.39" y="140.94" width="2.81" height="2.81"/><rect class="cls-3" x="250.39" y="150.36" width="2.81" height="2.81"/><rect class="cls-3" x="250.39" y="155.07" width="2.81" height="2.81"/><rect class="cls-3" x="245.93" y="103.28" width="2.81" height="2.81"/><rect class="cls-3" x="245.93" y="107.99" width="2.81" height="2.81"/><rect class="cls-3" x="245.93" y="112.69" width="2.81" height="2.81"/><rect class="cls-3" x="245.93" y="117.4" width="2.81" height="2.81"/><rect class="cls-3" x="245.93" y="122.11" width="2.81" height="2.81"/><rect class="cls-3" x="245.93" y="126.82" width="2.81" height="2.81"/><rect class="cls-3" x="245.93" y="131.53" width="2.81" height="2.81"/><rect class="cls-3" x="245.93" y="136.24" width="2.81" height="2.81"/><rect class="cls-3" x="245.93" y="140.94" width="2.81" height="2.81"/><rect class="cls-3" x="245.93" y="145.65" width="2.81" height="2.81"/><rect class="cls-3" x="245.93" y="155.07" width="2.81" height="2.81"/><rect class="cls-3" x="241.47" y="103.28" width="2.81" height="2.81"/><rect class="cls-3" x="241.47" y="107.99" width="2.81" height="2.81"/><rect class="cls-3" x="241.47" y="112.69" width="2.81" height="2.81"/><rect class="cls-3" x="241.47" y="117.4" width="2.81" height="2.81"/><rect class="cls-3" x="241.47" y="122.11" width="2.81" height="2.81"/><rect class="cls-3" x="241.47" y="126.82" width="2.81" height="2.81"/><rect class="cls-3" x="241.47" y="131.53" width="2.81" height="2.81"/><rect class="cls-3" x="241.47" y="173.9" width="2.81" height="2.81"/><rect class="cls-3" x="237.01" y="103.28" width="2.81" height="2.81"/><rect class="cls-3" x="237.01" y="107.99" width="2.81" height="2.81"/><rect class="cls-3" x="237.01" y="112.69" width="2.81" height="2.81"/><rect class="cls-3" x="237.01" y="117.4" width="2.81" height="2.81"/><rect class="cls-3" x="237.01" y="122.11" width="2.81" height="2.81"/><rect class="cls-3" x="237.01" y="126.82" width="2.81" height="2.81"/><rect class="cls-3" x="237.01" y="131.53" width="2.81" height="2.81"/><rect class="cls-3" x="237.01" y="136.24" width="2.81" height="2.81"/><rect class="cls-3" x="237.01" y="164.49" width="2.81" height="2.81"/><rect class="cls-3" x="237.01" y="169.2" width="2.81" height="2.81"/><rect class="cls-3" x="237.01" y="173.9" width="2.81" height="2.81"/><rect class="cls-3" x="237.01" y="178.61" width="2.81" height="2.81"/><rect class="cls-3" x="237.01" y="197.45" width="2.81" height="2.81"/><rect class="cls-3" x="232.55" y="103.28" width="2.81" height="2.81"/><rect class="cls-3" x="232.55" y="107.99" width="2.81" height="2.81"/><rect class="cls-3" x="232.55" y="112.69" width="2.81" height="2.81"/><rect class="cls-3" x="232.55" y="117.4" width="2.81" height="2.81"/><rect class="cls-3" x="232.55" y="122.11" width="2.81" height="2.81"/><rect class="cls-3" x="232.55" y="126.82" width="2.81" height="2.81"/><rect class="cls-3" x="232.55" y="131.53" width="2.81" height="2.81"/><rect class="cls-3" x="232.55" y="136.24" width="2.81" height="2.81"/><rect class="cls-3" x="232.55" y="140.94" width="2.81" height="2.81"/><rect class="cls-3" x="232.55" y="145.65" width="2.81" height="2.81"/><rect class="cls-3" x="232.55" y="159.78" width="2.81" height="2.81"/><rect class="cls-3" x="232.55" y="164.49" width="2.81" height="2.81"/><rect class="cls-3" x="232.55" y="169.2" width="2.81" height="2.81"/><rect class="cls-3" x="232.55" y="173.9" width="2.81" height="2.81"/><rect class="cls-3" x="232.55" y="178.61" width="2.81" height="2.81"/><rect class="cls-3" x="232.55" y="197.45" width="2.81" height="2.81"/><rect class="cls-3" x="228.08" y="103.28" width="2.81" height="2.81"/><rect class="cls-3" x="228.08" y="107.99" width="2.81" height="2.81"/><rect class="cls-3" x="228.08" y="112.69" width="2.81" height="2.81"/><rect class="cls-3" x="228.08" y="117.4" width="2.81" height="2.81"/><rect class="cls-3" x="228.08" y="122.11" width="2.81" height="2.81"/><rect class="cls-3" x="228.08" y="126.82" width="2.81" height="2.81"/><rect class="cls-3" x="228.08" y="131.53" width="2.81" height="2.81"/><rect class="cls-3" x="228.08" y="136.24" width="2.81" height="2.81"/><rect class="cls-3" x="228.08" y="140.94" width="2.81" height="2.81"/><rect class="cls-3" x="228.08" y="145.65" width="2.81" height="2.81"/><rect class="cls-3" x="228.08" y="150.36" width="2.81" height="2.81"/><rect class="cls-3" x="228.08" y="155.07" width="2.81" height="2.81"/><rect class="cls-3" x="228.08" y="159.78" width="2.81" height="2.81"/><rect class="cls-3" x="228.08" y="164.49" width="2.81" height="2.81"/><rect class="cls-3" x="228.08" y="169.2" width="2.81" height="2.81"/><rect class="cls-3" x="228.08" y="173.9" width="2.81" height="2.81"/><rect class="cls-3" x="228.08" y="178.61" width="2.81" height="2.81"/><rect class="cls-3" x="228.08" y="183.32" width="2.81" height="2.81"/><rect class="cls-3" x="223.62" y="103.28" width="2.81" height="2.81"/><rect class="cls-3" x="223.62" y="107.99" width="2.81" height="2.81"/><rect class="cls-3" x="223.62" y="112.69" width="2.81" height="2.81"/><rect class="cls-3" x="223.62" y="117.4" width="2.81" height="2.81"/><rect class="cls-3" x="223.62" y="122.11" width="2.81" height="2.81"/><rect class="cls-3" x="223.62" y="126.82" width="2.81" height="2.81"/><rect class="cls-3" x="223.62" y="131.53" width="2.81" height="2.81"/><rect class="cls-3" x="223.62" y="136.24" width="2.81" height="2.81"/><rect class="cls-3" x="223.62" y="140.94" width="2.81" height="2.81"/><rect class="cls-3" x="223.62" y="145.65" width="2.81" height="2.81"/><rect class="cls-3" x="223.62" y="159.78" width="2.81" height="2.81"/><rect class="cls-3" x="223.62" y="164.49" width="2.81" height="2.81"/><rect class="cls-3" x="223.62" y="169.2" width="2.81" height="2.81"/><rect class="cls-3" x="223.62" y="173.9" width="2.81" height="2.81"/><rect class="cls-3" x="219.16" y="103.28" width="2.81" height="2.81"/><rect class="cls-3" x="219.16" y="107.99" width="2.81" height="2.81"/><rect class="cls-3" x="219.16" y="112.69" width="2.81" height="2.81"/><rect class="cls-3" x="219.16" y="117.4" width="2.81" height="2.81"/><rect class="cls-3" x="219.16" y="122.11" width="2.81" height="2.81"/><rect class="cls-3" x="219.16" y="126.82" width="2.81" height="2.81"/><rect class="cls-3" x="219.16" y="131.53" width="2.81" height="2.81"/><rect class="cls-3" x="219.16" y="136.24" width="2.81" height="2.81"/><rect class="cls-3" x="219.16" y="140.94" width="2.81" height="2.81"/><rect class="cls-3" x="219.16" y="145.65" width="2.81" height="2.81"/><rect class="cls-3" x="219.16" y="159.78" width="2.81" height="2.81"/><rect class="cls-3" x="219.16" y="164.49" width="2.81" height="2.81"/><rect class="cls-3" x="219.16" y="169.2" width="2.81" height="2.81"/><rect class="cls-3" x="168.94" y="91.05" width="2.81" height="2.81"/><rect class="cls-3" x="168.94" y="95.76" width="2.81" height="2.81"/><rect class="cls-3" x="168.94" y="100.47" width="2.81" height="2.81"/><rect class="cls-3" x="168.94" y="105.18" width="2.81" height="2.81"/><rect class="cls-3" x="168.94" y="109.89" width="2.81" height="2.81"/><rect class="cls-3" x="168.94" y="114.59" width="2.81" height="2.81"/><rect class="cls-3" x="168.94" y="119.3" width="2.81" height="2.81"/><rect class="cls-3" x="168.94" y="124.01" width="2.81" height="2.81"/><rect class="cls-3" x="168.94" y="138.14" width="2.81" height="2.81"/><rect class="cls-3" x="168.94" y="142.84" width="2.81" height="2.81"/><rect class="cls-3" x="164.48" y="91.05" width="2.81" height="2.81"/><rect class="cls-3" x="164.48" y="95.76" width="2.81" height="2.81"/><rect class="cls-3" x="164.48" y="100.47" width="2.81" height="2.81"/><rect class="cls-3" x="164.48" y="105.18" width="2.81" height="2.81"/><rect class="cls-3" x="164.48" y="109.89" width="2.81" height="2.81"/><rect class="cls-3" x="164.48" y="114.59" width="2.81" height="2.81"/><rect class="cls-3" x="164.48" y="119.3" width="2.81" height="2.81"/><rect class="cls-3" x="164.48" y="124.01" width="2.81" height="2.81"/><rect class="cls-3" x="164.48" y="142.84" width="2.81" height="2.81"/><rect class="cls-3" x="160.02" y="91.05" width="2.81" height="2.81"/><rect class="cls-3" x="160.02" y="95.76" width="2.81" height="2.81"/><rect class="cls-3" x="160.02" y="100.47" width="2.81" height="2.81"/><rect class="cls-3" x="160.02" y="105.18" width="2.81" height="2.81"/><rect class="cls-3" x="160.02" y="109.89" width="2.81" height="2.81"/><rect class="cls-3" x="160.02" y="114.59" width="2.81" height="2.81"/><rect class="cls-3" x="160.02" y="119.3" width="2.81" height="2.81"/><rect class="cls-3" x="160.02" y="124.01" width="2.81" height="2.81"/><rect class="cls-3" x="155.56" y="91.05" width="2.81" height="2.81"/><rect class="cls-3" x="155.56" y="95.76" width="2.81" height="2.81"/><rect class="cls-3" x="155.56" y="100.47" width="2.81" height="2.81"/><rect class="cls-3" x="155.56" y="105.18" width="2.81" height="2.81"/><rect class="cls-3" x="155.56" y="109.89" width="2.81" height="2.81"/><rect class="cls-3" x="155.56" y="114.59" width="2.81" height="2.81"/><rect class="cls-3" x="155.56" y="124.01" width="2.81" height="2.81"/><rect class="cls-3" x="155.56" y="128.72" width="2.81" height="2.81"/><rect class="cls-3" x="155.56" y="142.84" width="2.81" height="2.81"/><rect class="cls-3" x="155.56" y="147.55" width="2.81" height="2.81"/><rect class="cls-3" x="155.56" y="152.26" width="2.81" height="2.81"/><rect class="cls-3" x="155.56" y="156.97" width="2.81" height="2.81"/><rect class="cls-3" x="155.56" y="161.68" width="2.81" height="2.81"/><rect class="cls-3" x="155.56" y="166.39" width="2.81" height="2.81"/><rect class="cls-3" x="155.56" y="171.1" width="2.81" height="2.81"/><rect class="cls-3" x="151.1" y="91.05" width="2.81" height="2.81"/><rect class="cls-3" x="151.1" y="95.76" width="2.81" height="2.81"/><rect class="cls-3" x="151.1" y="100.47" width="2.81" height="2.81"/><rect class="cls-3" x="151.1" y="105.18" width="2.81" height="2.81"/><rect class="cls-3" x="151.1" y="109.89" width="2.81" height="2.81"/><rect class="cls-3" x="151.1" y="114.59" width="2.81" height="2.81"/><rect class="cls-3" x="151.1" y="128.72" width="2.81" height="2.81"/><rect class="cls-3" x="151.1" y="133.43" width="2.81" height="2.81"/><rect class="cls-3" x="151.1" y="138.14" width="2.81" height="2.81"/><rect class="cls-3" x="151.1" y="142.84" width="2.81" height="2.81"/><rect class="cls-3" x="151.1" y="147.55" width="2.81" height="2.81"/><rect class="cls-3" x="151.1" y="152.26" width="2.81" height="2.81"/><rect class="cls-3" x="151.1" y="156.97" width="2.81" height="2.81"/><rect class="cls-3" x="151.1" y="161.68" width="2.81" height="2.81"/><rect class="cls-3" x="151.1" y="166.39" width="2.81" height="2.81"/><rect class="cls-3" x="151.1" y="171.1" width="2.81" height="2.81"/><rect class="cls-3" x="151.1" y="175.8" width="2.81" height="2.81"/><rect class="cls-3" x="151.1" y="185.22" width="2.81" height="2.81"/><rect class="cls-3" x="146.64" y="91.05" width="2.81" height="2.81"/><rect class="cls-3" x="146.64" y="95.76" width="2.81" height="2.81"/><rect class="cls-3" x="146.64" y="100.47" width="2.81" height="2.81"/><rect class="cls-3" x="146.64" y="105.18" width="2.81" height="2.81"/><rect class="cls-3" x="146.64" y="109.89" width="2.81" height="2.81"/><rect class="cls-3" x="146.64" y="114.59" width="2.81" height="2.81"/><rect class="cls-3" x="146.64" y="128.72" width="2.81" height="2.81"/><rect class="cls-3" x="146.64" y="133.43" width="2.81" height="2.81"/><rect class="cls-3" x="146.64" y="138.14" width="2.81" height="2.81"/><rect class="cls-3" x="146.64" y="142.84" width="2.81" height="2.81"/><rect class="cls-3" x="146.64" y="156.97" width="2.81" height="2.81"/><rect class="cls-3" x="146.64" y="161.68" width="2.81" height="2.81"/><rect class="cls-3" x="146.64" y="166.39" width="2.81" height="2.81"/><rect class="cls-3" x="146.64" y="171.1" width="2.81" height="2.81"/><rect class="cls-3" x="146.64" y="175.8" width="2.81" height="2.81"/><rect class="cls-3" x="146.64" y="185.22" width="2.81" height="2.81"/><rect class="cls-3" x="146.64" y="189.93" width="2.81" height="2.81"/><rect class="cls-3" x="106.16" y="134.83" width="2.81" height="2.81"/><rect class="cls-3" x="106.16" y="139.54" width="2.81" height="2.81"/><rect class="cls-3" x="106.16" y="144.25" width="2.81" height="2.81"/><rect class="cls-3" x="106.16" y="148.96" width="2.81" height="2.81"/><rect class="cls-3" x="106.16" y="153.67" width="2.81" height="2.81"/><rect class="cls-3" x="106.16" y="158.37" width="2.81" height="2.81"/><rect class="cls-3" x="106.16" y="163.08" width="2.81" height="2.81"/><rect class="cls-3" x="106.16" y="177.21" width="2.81" height="2.81"/><rect class="cls-3" x="106.16" y="181.92" width="2.81" height="2.81"/><rect class="cls-3" x="106.16" y="186.62" width="2.81" height="2.81"/><rect class="cls-3" x="101.7" y="134.83" width="2.81" height="2.81"/><rect class="cls-3" x="101.7" y="139.54" width="2.81" height="2.81"/><rect class="cls-3" x="101.7" y="144.25" width="2.81" height="2.81"/><rect class="cls-3" x="101.7" y="148.96" width="2.81" height="2.81"/><rect class="cls-3" x="101.7" y="153.67" width="2.81" height="2.81"/><rect class="cls-3" x="101.7" y="158.37" width="2.81" height="2.81"/><rect class="cls-3" x="101.7" y="163.08" width="2.81" height="2.81"/><rect class="cls-3" x="97.24" y="134.83" width="2.81" height="2.81"/><rect class="cls-3" x="97.24" y="139.54" width="2.81" height="2.81"/><rect class="cls-3" x="97.24" y="144.25" width="2.81" height="2.81"/><rect class="cls-3" x="97.24" y="148.96" width="2.81" height="2.81"/><rect class="cls-3" x="97.24" y="153.67" width="2.81" height="2.81"/><rect class="cls-3" x="97.24" y="158.37" width="2.81" height="2.81"/><rect class="cls-3" x="97.24" y="163.08" width="2.81" height="2.81"/><rect class="cls-3" x="92.78" y="134.83" width="2.81" height="2.81"/><rect class="cls-3" x="92.78" y="139.54" width="2.81" height="2.81"/><rect class="cls-3" x="92.78" y="144.25" width="2.81" height="2.81"/><rect class="cls-3" x="92.78" y="148.96" width="2.81" height="2.81"/><rect class="cls-3" x="92.78" y="153.67" width="2.81" height="2.81"/><rect class="cls-3" x="92.78" y="158.37" width="2.81" height="2.81"/><rect class="cls-3" x="92.78" y="163.08" width="2.81" height="2.81"/><rect class="cls-3" x="92.78" y="167.79" width="2.81" height="2.81"/><rect class="cls-3" x="92.78" y="172.5" width="2.81" height="2.81"/><rect class="cls-3" x="92.78" y="177.21" width="2.81" height="2.81"/><rect class="cls-3" x="92.78" y="181.92" width="2.81" height="2.81"/><rect class="cls-3" x="88.32" y="134.83" width="2.81" height="2.81"/><rect class="cls-3" x="88.32" y="139.54" width="2.81" height="2.81"/><rect class="cls-3" x="88.32" y="144.25" width="2.81" height="2.81"/><rect class="cls-3" x="88.32" y="148.96" width="2.81" height="2.81"/><rect class="cls-3" x="88.32" y="153.67" width="2.81" height="2.81"/><rect class="cls-3" x="88.32" y="158.37" width="2.81" height="2.81"/><rect class="cls-3" x="88.32" y="163.08" width="2.81" height="2.81"/><rect class="cls-3" x="88.32" y="167.79" width="2.81" height="2.81"/><rect class="cls-3" x="88.32" y="172.5" width="2.81" height="2.81"/><rect class="cls-3" x="88.32" y="177.21" width="2.81" height="2.81"/><rect class="cls-3" x="88.32" y="181.92" width="2.81" height="2.81"/><rect class="cls-3" x="88.32" y="186.62" width="2.81" height="2.81"/><rect class="cls-3" x="88.32" y="200.75" width="2.81" height="2.81"/><rect class="cls-3" x="83.86" y="134.83" width="2.81" height="2.81"/><rect class="cls-3" x="83.86" y="139.54" width="2.81" height="2.81"/><rect class="cls-3" x="83.86" y="144.25" width="2.81" height="2.81"/><rect class="cls-3" x="83.86" y="158.37" width="2.81" height="2.81"/><rect class="cls-3" x="83.86" y="163.08" width="2.81" height="2.81"/><rect class="cls-3" x="83.86" y="167.79" width="2.81" height="2.81"/><rect class="cls-3" x="83.86" y="172.5" width="2.81" height="2.81"/><rect class="cls-3" x="83.86" y="177.21" width="2.81" height="2.81"/><rect class="cls-3" x="83.86" y="181.92" width="2.81" height="2.81"/><rect class="cls-3" x="83.86" y="186.62" width="2.81" height="2.81"/><rect class="cls-3" x="83.86" y="200.75" width="2.81" height="2.81"/><rect class="cls-3" x="37.11" y="106.58" width="2.81" height="2.81"/><rect class="cls-3" x="37.11" y="111.29" width="2.81" height="2.81"/><rect class="cls-3" x="37.11" y="116" width="2.81" height="2.81"/><rect class="cls-3" x="37.11" y="120.71" width="2.81" height="2.81"/><rect class="cls-3" x="37.11" y="125.42" width="2.81" height="2.81"/><rect class="cls-3" x="37.11" y="130.12" width="2.81" height="2.81"/><rect class="cls-3" x="37.11" y="134.83" width="2.81" height="2.81"/><rect class="cls-3" x="37.11" y="139.54" width="2.81" height="2.81"/><rect class="cls-3" x="37.11" y="144.25" width="2.81" height="2.81"/><rect class="cls-3" x="37.11" y="148.96" width="2.81" height="2.81"/><rect class="cls-3" x="37.11" y="153.67" width="2.81" height="2.81"/><rect class="cls-3" x="37.11" y="158.37" width="2.81" height="2.81"/><rect class="cls-3" x="37.11" y="163.08" width="2.81" height="2.81"/><rect class="cls-3" x="37.11" y="167.79" width="2.81" height="2.81"/><rect class="cls-3" x="37.11" y="172.5" width="2.81" height="2.81"/><rect class="cls-3" x="37.11" y="177.21" width="2.81" height="2.81"/><rect class="cls-3" x="37.11" y="181.92" width="2.81" height="2.81"/><rect class="cls-3" x="37.11" y="186.62" width="2.81" height="2.81"/><rect class="cls-3" x="37.11" y="191.33" width="2.81" height="2.81"/><rect class="cls-3" x="37.11" y="196.04" width="2.81" height="2.81"/><rect class="cls-3" x="37.11" y="200.75" width="2.81" height="2.81"/><rect class="cls-3" x="32.64" y="106.58" width="2.81" height="2.81"/><rect class="cls-3" x="32.64" y="111.29" width="2.81" height="2.81"/><rect class="cls-3" x="32.64" y="116" width="2.81" height="2.81"/><rect class="cls-3" x="32.64" y="120.71" width="2.81" height="2.81"/><rect class="cls-3" x="32.64" y="125.42" width="2.81" height="2.81"/><rect class="cls-3" x="32.64" y="130.12" width="2.81" height="2.81"/><rect class="cls-3" x="32.64" y="134.83" width="2.81" height="2.81"/><rect class="cls-3" x="32.64" y="139.54" width="2.81" height="2.81"/><rect class="cls-3" x="32.64" y="144.25" width="2.81" height="2.81"/><rect class="cls-3" x="32.64" y="148.96" width="2.81" height="2.81"/><rect class="cls-3" x="32.64" y="153.67" width="2.81" height="2.81"/><rect class="cls-3" x="32.64" y="158.37" width="2.81" height="2.81"/><rect class="cls-3" x="32.64" y="163.08" width="2.81" height="2.81"/><rect class="cls-3" x="32.64" y="167.79" width="2.81" height="2.81"/><rect class="cls-3" x="32.64" y="172.5" width="2.81" height="2.81"/><rect class="cls-3" x="32.64" y="177.21" width="2.81" height="2.81"/><rect class="cls-3" x="32.64" y="181.92" width="2.81" height="2.81"/><rect class="cls-3" x="32.64" y="186.62" width="2.81" height="2.81"/><rect class="cls-3" x="32.64" y="191.33" width="2.81" height="2.81"/><rect class="cls-3" x="28.18" y="106.58" width="2.81" height="2.81"/><rect class="cls-3" x="28.18" y="111.29" width="2.81" height="2.81"/><rect class="cls-3" x="28.18" y="116" width="2.81" height="2.81"/><rect class="cls-3" x="28.18" y="120.71" width="2.81" height="2.81"/><rect class="cls-3" x="28.18" y="125.42" width="2.81" height="2.81"/><rect class="cls-3" x="28.18" y="130.12" width="2.81" height="2.81"/><rect class="cls-3" x="28.18" y="134.83" width="2.81" height="2.81"/><rect class="cls-3" x="28.18" y="139.54" width="2.81" height="2.81"/><rect class="cls-3" x="28.18" y="144.25" width="2.81" height="2.81"/><rect class="cls-3" x="28.18" y="148.96" width="2.81" height="2.81"/><rect class="cls-3" x="28.18" y="153.67" width="2.81" height="2.81"/><rect class="cls-3" x="28.18" y="158.37" width="2.81" height="2.81"/><rect class="cls-3" x="28.18" y="163.08" width="2.81" height="2.81"/><rect class="cls-3" x="28.18" y="167.79" width="2.81" height="2.81"/><rect class="cls-3" x="28.18" y="172.5" width="2.81" height="2.81"/><rect class="cls-3" x="28.18" y="177.21" width="2.81" height="2.81"/><rect class="cls-3" x="28.18" y="181.92" width="2.81" height="2.81"/><rect class="cls-3" x="28.18" y="186.62" width="2.81" height="2.81"/><rect class="cls-3" x="28.18" y="191.33" width="2.81" height="2.81"/><rect class="cls-3" x="23.72" y="106.58" width="2.81" height="2.81"/><rect class="cls-3" x="23.72" y="111.29" width="2.81" height="2.81"/><rect class="cls-3" x="23.72" y="116" width="2.81" height="2.81"/><rect class="cls-3" x="23.72" y="120.71" width="2.81" height="2.81"/><rect class="cls-3" x="23.72" y="125.42" width="2.81" height="2.81"/><rect class="cls-3" x="23.72" y="130.12" width="2.81" height="2.81"/><rect class="cls-3" x="23.72" y="134.83" width="2.81" height="2.81"/><rect class="cls-3" x="23.72" y="139.54" width="2.81" height="2.81"/><rect class="cls-3" x="23.72" y="144.25" width="2.81" height="2.81"/><rect class="cls-3" x="23.72" y="148.96" width="2.81" height="2.81"/><rect class="cls-3" x="23.72" y="153.67" width="2.81" height="2.81"/><rect class="cls-3" x="23.72" y="158.37" width="2.81" height="2.81"/><rect class="cls-3" x="23.72" y="163.08" width="2.81" height="2.81"/><rect class="cls-3" x="23.72" y="167.79" width="2.81" height="2.81"/><rect class="cls-3" x="23.72" y="172.5" width="2.81" height="2.81"/><rect class="cls-3" x="19.26" y="106.58" width="2.81" height="2.81"/><rect class="cls-3" x="19.26" y="111.29" width="2.81" height="2.81"/><rect class="cls-3" x="19.26" y="116" width="2.81" height="2.81"/><rect class="cls-3" x="19.26" y="120.71" width="2.81" height="2.81"/><rect class="cls-3" x="19.26" y="125.42" width="2.81" height="2.81"/><rect class="cls-3" x="19.26" y="130.12" width="2.81" height="2.81"/><rect class="cls-3" x="19.26" y="134.83" width="2.81" height="2.81"/><rect class="cls-3" x="19.26" y="139.54" width="2.81" height="2.81"/><rect class="cls-3" x="19.26" y="144.25" width="2.81" height="2.81"/><rect class="cls-3" x="19.26" y="148.96" width="2.81" height="2.81"/><rect class="cls-3" x="19.26" y="153.67" width="2.81" height="2.81"/><rect class="cls-3" x="19.26" y="158.37" width="2.81" height="2.81"/><rect class="cls-3" x="19.26" y="163.08" width="2.81" height="2.81"/><rect class="cls-3" x="14.8" y="106.58" width="2.81" height="2.81"/><rect class="cls-3" x="14.8" y="111.29" width="2.81" height="2.81"/><rect class="cls-3" x="14.8" y="116" width="2.81" height="2.81"/><rect class="cls-3" x="14.8" y="120.71" width="2.81" height="2.81"/><rect class="cls-3" x="14.8" y="125.42" width="2.81" height="2.81"/><rect class="cls-3" x="14.8" y="130.12" width="2.81" height="2.81"/><rect class="cls-3" x="14.8" y="134.83" width="2.81" height="2.81"/><rect class="cls-3" x="14.8" y="139.54" width="2.81" height="2.81"/><rect class="cls-3" x="14.8" y="144.25" width="2.81" height="2.81"/><rect class="cls-3" x="14.8" y="148.96" width="2.81" height="2.81"/><rect class="cls-3" x="14.8" y="153.67" width="2.81" height="2.81"/><rect class="cls-3" x="14.8" y="158.37" width="2.81" height="2.81"/><rect class="cls-3" x="342.57" y="140.94" width="2.81" height="2.81"/><rect class="cls-3" x="342.57" y="145.65" width="2.81" height="2.81"/><rect class="cls-3" x="342.57" y="150.36" width="2.81" height="2.81"/><rect class="cls-3" x="342.57" y="155.07" width="2.81" height="2.81"/><rect class="cls-3" x="342.57" y="159.78" width="2.81" height="2.81"/><rect class="cls-3" x="342.57" y="164.49" width="2.81" height="2.81"/><rect class="cls-3" x="342.57" y="169.2" width="2.81" height="2.81"/><rect class="cls-3" x="342.57" y="173.9" width="2.81" height="2.81"/><rect class="cls-3" x="342.57" y="178.61" width="2.81" height="2.81"/><rect class="cls-3" x="342.57" y="183.32" width="2.81" height="2.81"/><rect class="cls-3" x="342.57" y="188.03" width="2.81" height="2.81"/><rect class="cls-3" x="342.57" y="192.74" width="2.81" height="2.81"/><rect class="cls-3" x="342.57" y="197.45" width="2.81" height="2.81"/><rect class="cls-3" x="342.57" y="202.15" width="2.81" height="2.81"/><rect class="cls-3" x="338.11" y="140.94" width="2.81" height="2.81"/><rect class="cls-3" x="338.11" y="145.65" width="2.81" height="2.81"/><rect class="cls-3" x="338.11" y="150.36" width="2.81" height="2.81"/><rect class="cls-3" x="338.11" y="155.07" width="2.81" height="2.81"/><rect class="cls-3" x="338.11" y="159.78" width="2.81" height="2.81"/><rect class="cls-3" x="338.11" y="164.49" width="2.81" height="2.81"/><rect class="cls-3" x="338.11" y="169.2" width="2.81" height="2.81"/><rect class="cls-3" x="338.11" y="173.9" width="2.81" height="2.81"/><rect class="cls-3" x="338.11" y="178.61" width="2.81" height="2.81"/><rect class="cls-3" x="338.11" y="183.32" width="2.81" height="2.81"/><rect class="cls-3" x="338.11" y="188.03" width="2.81" height="2.81"/><rect class="cls-3" x="338.11" y="192.74" width="2.81" height="2.81"/><rect class="cls-3" x="338.11" y="197.45" width="2.81" height="2.81"/><rect class="cls-3" x="338.11" y="202.15" width="2.81" height="2.81"/><rect class="cls-3" x="333.65" y="140.94" width="2.81" height="2.81"/><rect class="cls-3" x="333.65" y="145.65" width="2.81" height="2.81"/><rect class="cls-3" x="333.65" y="150.36" width="2.81" height="2.81"/><rect class="cls-3" x="333.65" y="155.07" width="2.81" height="2.81"/><rect class="cls-3" x="333.65" y="159.78" width="2.81" height="2.81"/><rect class="cls-3" x="333.65" y="164.49" width="2.81" height="2.81"/><rect class="cls-3" x="333.65" y="169.2" width="2.81" height="2.81"/><rect class="cls-3" x="333.65" y="173.9" width="2.81" height="2.81"/><rect class="cls-3" x="333.65" y="178.61" width="2.81" height="2.81"/><rect class="cls-3" x="333.65" y="183.32" width="2.81" height="2.81"/><rect class="cls-3" x="333.65" y="188.03" width="2.81" height="2.81"/><rect class="cls-3" x="333.65" y="192.74" width="2.81" height="2.81"/><rect class="cls-3" x="333.65" y="197.45" width="2.81" height="2.81"/><rect class="cls-3" x="333.65" y="202.15" width="2.81" height="2.81"/><rect class="cls-3" x="359.26" y="175.31" width="2.81" height="2.81"/><rect class="cls-3" x="359.26" y="180.02" width="2.81" height="2.81"/><rect class="cls-3" x="359.26" y="184.72" width="2.81" height="2.81"/><rect class="cls-3" x="359.26" y="189.43" width="2.81" height="2.81"/><rect class="cls-3" x="359.26" y="194.14" width="2.81" height="2.81"/><rect class="cls-3" x="359.26" y="198.85" width="2.81" height="2.81"/><rect class="cls-3" x="359.26" y="203.56" width="2.81" height="2.81"/><rect class="cls-3" x="354.8" y="175.31" width="2.81" height="2.81"/><rect class="cls-3" x="354.8" y="180.02" width="2.81" height="2.81"/><rect class="cls-3" x="354.8" y="184.72" width="2.81" height="2.81"/><rect class="cls-3" x="354.8" y="189.43" width="2.81" height="2.81"/><rect class="cls-3" x="354.8" y="194.14" width="2.81" height="2.81"/><rect class="cls-3" x="354.8" y="198.85" width="2.81" height="2.81"/><rect class="cls-3" x="354.8" y="203.56" width="2.81" height="2.81"/><rect class="cls-3" x="350.34" y="175.31" width="2.81" height="2.81"/><rect class="cls-3" x="350.34" y="180.02" width="2.81" height="2.81"/><rect class="cls-3" x="350.34" y="184.72" width="2.81" height="2.81"/><rect class="cls-3" x="350.34" y="189.43" width="2.81" height="2.81"/><rect class="cls-3" x="350.34" y="194.14" width="2.81" height="2.81"/><rect class="cls-3" x="350.34" y="198.85" width="2.81" height="2.81"/><rect class="cls-3" x="350.34" y="203.56" width="2.81" height="2.81"/><rect class="cls-3" x="325.56" y="176.71" width="2.81" height="2.81"/><rect class="cls-3" x="325.56" y="181.42" width="2.81" height="2.81"/><rect class="cls-3" x="325.56" y="186.13" width="2.81" height="2.81"/><rect class="cls-3" x="325.56" y="190.84" width="2.81" height="2.81"/><rect class="cls-3" x="325.56" y="195.55" width="2.81" height="2.81"/><rect class="cls-3" x="325.56" y="200.25" width="2.81" height="2.81"/><rect class="cls-3" x="321.1" y="176.71" width="2.81" height="2.81"/><rect class="cls-3" x="321.1" y="181.42" width="2.81" height="2.81"/><rect class="cls-3" x="321.1" y="186.13" width="2.81" height="2.81"/><rect class="cls-3" x="321.1" y="190.84" width="2.81" height="2.81"/><rect class="cls-3" x="321.1" y="195.55" width="2.81" height="2.81"/><rect class="cls-3" x="321.1" y="200.25" width="2.81" height="2.81"/><rect class="cls-3" x="316.64" y="176.71" width="2.81" height="2.81"/><rect class="cls-3" x="316.64" y="181.42" width="2.81" height="2.81"/><rect class="cls-3" x="316.64" y="186.13" width="2.81" height="2.81"/><rect class="cls-3" x="316.64" y="190.84" width="2.81" height="2.81"/><rect class="cls-3" x="316.64" y="195.55" width="2.81" height="2.81"/><rect class="cls-3" x="316.64" y="200.25" width="2.81" height="2.81"/><rect class="cls-3" x="275.17" y="105.18" width="2.81" height="2.81"/><rect class="cls-3" x="275.17" y="109.89" width="2.81" height="2.81"/><rect class="cls-3" x="275.17" y="114.59" width="2.81" height="2.81"/><rect class="cls-3" x="275.17" y="119.3" width="2.81" height="2.81"/><rect class="cls-3" x="275.17" y="124.01" width="2.81" height="2.81"/><rect class="cls-3" x="275.17" y="128.72" width="2.81" height="2.81"/><rect class="cls-3" x="275.17" y="133.43" width="2.81" height="2.81"/><rect class="cls-3" x="275.17" y="138.14" width="2.81" height="2.81"/><rect class="cls-3" x="275.17" y="142.84" width="2.81" height="2.81"/><rect class="cls-3" x="275.17" y="147.55" width="2.81" height="2.81"/><rect class="cls-3" x="275.17" y="152.26" width="2.81" height="2.81"/><rect class="cls-3" x="275.17" y="156.97" width="2.81" height="2.81"/><rect class="cls-3" x="275.17" y="161.68" width="2.81" height="2.81"/><rect class="cls-3" x="275.17" y="166.39" width="2.81" height="2.81"/><rect class="cls-3" x="275.17" y="171.1" width="2.81" height="2.81"/><rect class="cls-3" x="275.17" y="175.8" width="2.81" height="2.81"/><rect class="cls-3" x="275.17" y="180.51" width="2.81" height="2.81"/><rect class="cls-3" x="275.17" y="189.93" width="2.81" height="2.81"/><rect class="cls-3" x="275.17" y="194.64" width="2.81" height="2.81"/><rect class="cls-3" x="275.17" y="199.35" width="2.81" height="2.81"/><rect class="cls-3" x="275.17" y="204.05" width="2.81" height="2.81"/><rect class="cls-3" x="270.71" y="105.18" width="2.81" height="2.81"/><rect class="cls-3" x="270.71" y="109.89" width="2.81" height="2.81"/><rect class="cls-3" x="270.71" y="114.59" width="2.81" height="2.81"/><rect class="cls-3" x="270.71" y="119.3" width="2.81" height="2.81"/><rect class="cls-3" x="270.71" y="124.01" width="2.81" height="2.81"/><rect class="cls-3" x="270.71" y="128.72" width="2.81" height="2.81"/><rect class="cls-3" x="270.71" y="133.43" width="2.81" height="2.81"/><rect class="cls-3" x="270.71" y="138.14" width="2.81" height="2.81"/><rect class="cls-3" x="270.71" y="142.84" width="2.81" height="2.81"/><rect class="cls-3" x="270.71" y="147.55" width="2.81" height="2.81"/><rect class="cls-3" x="270.71" y="152.26" width="2.81" height="2.81"/><rect class="cls-3" x="270.71" y="156.97" width="2.81" height="2.81"/><rect class="cls-3" x="270.71" y="161.68" width="2.81" height="2.81"/><rect class="cls-3" x="270.71" y="166.39" width="2.81" height="2.81"/><rect class="cls-3" x="270.71" y="171.1" width="2.81" height="2.81"/><rect class="cls-3" x="270.71" y="175.8" width="2.81" height="2.81"/><rect class="cls-3" x="270.71" y="204.05" width="2.81" height="2.81"/><rect class="cls-3" x="266.25" y="105.18" width="2.81" height="2.81"/><rect class="cls-3" x="266.25" y="109.89" width="2.81" height="2.81"/><rect class="cls-3" x="266.25" y="114.59" width="2.81" height="2.81"/><rect class="cls-3" x="266.25" y="119.3" width="2.81" height="2.81"/><rect class="cls-3" x="266.25" y="124.01" width="2.81" height="2.81"/><rect class="cls-3" x="266.25" y="128.72" width="2.81" height="2.81"/><rect class="cls-3" x="266.25" y="133.43" width="2.81" height="2.81"/><rect class="cls-3" x="266.25" y="138.14" width="2.81" height="2.81"/><rect class="cls-3" x="266.25" y="142.84" width="2.81" height="2.81"/><rect class="cls-3" x="266.25" y="147.55" width="2.81" height="2.81"/><rect class="cls-3" x="266.25" y="152.26" width="2.81" height="2.81"/><rect class="cls-3" x="266.25" y="156.97" width="2.81" height="2.81"/><rect class="cls-3" x="266.25" y="161.68" width="2.81" height="2.81"/><rect class="cls-3" x="266.25" y="166.39" width="2.81" height="2.81"/><rect class="cls-3" x="266.25" y="171.1" width="2.81" height="2.81"/><rect class="cls-3" x="266.25" y="175.8" width="2.81" height="2.81"/><rect class="cls-3" x="266.25" y="185.22" width="2.81" height="2.81"/><rect class="cls-3" x="266.25" y="189.93" width="2.81" height="2.81"/><rect class="cls-3" x="266.25" y="194.64" width="2.81" height="2.81"/><rect class="cls-3" x="266.25" y="199.35" width="2.81" height="2.81"/><rect class="cls-3" x="291.36" y="164.49" width="2.81" height="2.81"/><rect class="cls-3" x="291.36" y="169.2" width="2.81" height="2.81"/><rect class="cls-3" x="291.36" y="173.9" width="2.81" height="2.81"/><rect class="cls-3" x="291.36" y="178.61" width="2.81" height="2.81"/><rect class="cls-3" x="291.36" y="183.32" width="2.81" height="2.81"/><rect class="cls-3" x="291.36" y="188.03" width="2.81" height="2.81"/><rect class="cls-3" x="291.36" y="192.74" width="2.81" height="2.81"/><rect class="cls-3" x="291.36" y="202.15" width="2.81" height="2.81"/><rect class="cls-3" x="286.9" y="164.49" width="2.81" height="2.81"/><rect class="cls-3" x="286.9" y="169.2" width="2.81" height="2.81"/><rect class="cls-3" x="286.9" y="173.9" width="2.81" height="2.81"/><rect class="cls-3" x="286.9" y="178.61" width="2.81" height="2.81"/><rect class="cls-3" x="286.9" y="183.32" width="2.81" height="2.81"/><rect class="cls-3" x="286.9" y="188.03" width="2.81" height="2.81"/><rect class="cls-3" x="286.9" y="202.15" width="2.81" height="2.81"/><rect class="cls-3" x="282.44" y="164.49" width="2.81" height="2.81"/><rect class="cls-3" x="282.44" y="169.2" width="2.81" height="2.81"/><rect class="cls-3" x="282.44" y="173.9" width="2.81" height="2.81"/><rect class="cls-3" x="282.44" y="178.61" width="2.81" height="2.81"/><rect class="cls-3" x="282.44" y="183.32" width="2.81" height="2.81"/><rect class="cls-3" x="282.44" y="188.03" width="2.81" height="2.81"/><rect class="cls-3" x="282.44" y="197.45" width="2.81" height="2.81"/><rect class="cls-3" x="282.44" y="202.15" width="2.81" height="2.81"/><rect class="cls-3" x="188.43" y="138.14" width="2.81" height="2.81"/><rect class="cls-3" x="188.43" y="142.84" width="2.81" height="2.81"/><rect class="cls-3" x="188.43" y="147.55" width="2.81" height="2.81"/><rect class="cls-3" x="188.43" y="152.26" width="2.81" height="2.81"/><rect class="cls-3" x="188.43" y="156.97" width="2.81" height="2.81"/><rect class="cls-3" x="188.43" y="161.68" width="2.81" height="2.81"/><rect class="cls-3" x="188.43" y="166.39" width="2.81" height="2.81"/><rect class="cls-3" x="188.43" y="171.1" width="2.81" height="2.81"/><rect class="cls-3" x="188.43" y="175.8" width="2.81" height="2.81"/><rect class="cls-3" x="188.43" y="180.51" width="2.81" height="2.81"/><rect class="cls-3" x="188.43" y="185.22" width="2.81" height="2.81"/><rect class="cls-3" x="188.43" y="189.93" width="2.81" height="2.81"/><rect class="cls-3" x="188.43" y="194.64" width="2.81" height="2.81"/><rect class="cls-3" x="188.43" y="204.05" width="2.81" height="2.81"/><rect class="cls-3" x="183.97" y="138.14" width="2.81" height="2.81"/><rect class="cls-3" x="183.97" y="142.84" width="2.81" height="2.81"/><rect class="cls-3" x="183.97" y="147.55" width="2.81" height="2.81"/><rect class="cls-3" x="183.97" y="152.26" width="2.81" height="2.81"/><rect class="cls-3" x="183.97" y="156.97" width="2.81" height="2.81"/><rect class="cls-3" x="183.97" y="161.68" width="2.81" height="2.81"/><rect class="cls-3" x="183.97" y="166.39" width="2.81" height="2.81"/><rect class="cls-3" x="183.97" y="171.1" width="2.81" height="2.81"/><rect class="cls-3" x="183.97" y="175.8" width="2.81" height="2.81"/><rect class="cls-3" x="183.97" y="180.51" width="2.81" height="2.81"/><rect class="cls-3" x="183.97" y="185.22" width="2.81" height="2.81"/><rect class="cls-3" x="183.97" y="189.93" width="2.81" height="2.81"/><rect class="cls-3" x="183.97" y="194.64" width="2.81" height="2.81"/><rect class="cls-3" x="179.51" y="138.14" width="2.81" height="2.81"/><rect class="cls-3" x="179.51" y="142.84" width="2.81" height="2.81"/><rect class="cls-3" x="179.51" y="147.55" width="2.81" height="2.81"/><rect class="cls-3" x="179.51" y="152.26" width="2.81" height="2.81"/><rect class="cls-3" x="179.51" y="156.97" width="2.81" height="2.81"/><rect class="cls-3" x="179.51" y="161.68" width="2.81" height="2.81"/><rect class="cls-3" x="179.51" y="166.39" width="2.81" height="2.81"/><rect class="cls-3" x="179.51" y="171.1" width="2.81" height="2.81"/><rect class="cls-3" x="179.51" y="175.8" width="2.81" height="2.81"/><rect class="cls-3" x="179.51" y="180.51" width="2.81" height="2.81"/><rect class="cls-3" x="179.51" y="185.22" width="2.81" height="2.81"/><rect class="cls-3" x="179.51" y="189.93" width="2.81" height="2.81"/><rect class="cls-3" x="179.51" y="194.64" width="2.81" height="2.81"/><rect class="cls-3" x="179.51" y="199.35" width="2.81" height="2.81"/><rect class="cls-3" x="206.61" y="164.98" width="2.81" height="2.81"/><rect class="cls-3" x="206.61" y="169.69" width="2.81" height="2.81"/><rect class="cls-3" x="206.61" y="174.4" width="2.81" height="2.81"/><rect class="cls-3" x="206.61" y="179.11" width="2.81" height="2.81"/><rect class="cls-3" x="206.61" y="183.82" width="2.81" height="2.81"/><rect class="cls-3" x="206.61" y="188.52" width="2.81" height="2.81"/><rect class="cls-3" x="206.61" y="202.65" width="2.81" height="2.81"/><rect class="cls-3" x="202.15" y="164.98" width="2.81" height="2.81"/><rect class="cls-3" x="202.15" y="169.69" width="2.81" height="2.81"/><rect class="cls-3" x="202.15" y="174.4" width="2.81" height="2.81"/><rect class="cls-3" x="202.15" y="179.11" width="2.81" height="2.81"/><rect class="cls-3" x="202.15" y="183.82" width="2.81" height="2.81"/><rect class="cls-3" x="202.15" y="188.52" width="2.81" height="2.81"/><rect class="cls-3" x="202.15" y="202.65" width="2.81" height="2.81"/><rect class="cls-3" x="53.96" y="144.25" width="2.81" height="2.81"/><rect class="cls-3" x="53.96" y="148.96" width="2.81" height="2.81"/><rect class="cls-3" x="53.96" y="153.67" width="2.81" height="2.81"/><rect class="cls-3" x="53.96" y="158.37" width="2.81" height="2.81"/><rect class="cls-3" x="53.96" y="163.08" width="2.81" height="2.81"/><rect class="cls-3" x="53.96" y="167.79" width="2.81" height="2.81"/><rect class="cls-3" x="53.96" y="172.5" width="2.81" height="2.81"/><rect class="cls-3" x="53.96" y="177.21" width="2.81" height="2.81"/><rect class="cls-3" x="53.96" y="181.92" width="2.81" height="2.81"/><rect class="cls-3" x="53.96" y="186.62" width="2.81" height="2.81"/><rect class="cls-3" x="53.96" y="191.33" width="2.81" height="2.81"/><rect class="cls-3" x="53.96" y="200.75" width="2.81" height="2.81"/><rect class="cls-3" x="49.5" y="144.25" width="2.81" height="2.81"/><rect class="cls-3" x="49.5" y="148.96" width="2.81" height="2.81"/><rect class="cls-3" x="49.5" y="153.67" width="2.81" height="2.81"/><rect class="cls-3" x="49.5" y="158.37" width="2.81" height="2.81"/><rect class="cls-3" x="49.5" y="163.08" width="2.81" height="2.81"/><rect class="cls-3" x="49.5" y="167.79" width="2.81" height="2.81"/><rect class="cls-3" x="49.5" y="172.5" width="2.81" height="2.81"/><rect class="cls-3" x="49.5" y="177.21" width="2.81" height="2.81"/><rect class="cls-3" x="49.5" y="181.92" width="2.81" height="2.81"/><rect class="cls-3" x="49.5" y="186.62" width="2.81" height="2.81"/><rect class="cls-3" x="49.5" y="191.33" width="2.81" height="2.81"/><rect class="cls-3" x="49.5" y="196.04" width="2.81" height="2.81"/><rect class="cls-3" x="49.5" y="200.75" width="2.81" height="2.81"/><rect class="cls-3" x="75.93" y="162.59" width="2.81" height="2.81"/><rect class="cls-3" x="75.93" y="167.3" width="2.81" height="2.81"/><rect class="cls-3" x="75.93" y="172" width="2.81" height="2.81"/><rect class="cls-3" x="75.93" y="176.71" width="2.81" height="2.81"/><rect class="cls-3" x="75.93" y="181.42" width="2.81" height="2.81"/><rect class="cls-3" x="75.93" y="186.13" width="2.81" height="2.81"/><rect class="cls-3" x="75.93" y="190.84" width="2.81" height="2.81"/><rect class="cls-3" x="75.93" y="195.55" width="2.81" height="2.81"/><rect class="cls-3" x="75.93" y="200.25" width="2.81" height="2.81"/><rect class="cls-3" x="71.47" y="162.59" width="2.81" height="2.81"/><rect class="cls-3" x="71.47" y="167.3" width="2.81" height="2.81"/><rect class="cls-3" x="71.47" y="172" width="2.81" height="2.81"/><rect class="cls-3" x="71.47" y="176.71" width="2.81" height="2.81"/><rect class="cls-3" x="71.47" y="181.42" width="2.81" height="2.81"/><rect class="cls-3" x="71.47" y="186.13" width="2.81" height="2.81"/><rect class="cls-3" x="71.47" y="190.84" width="2.81" height="2.81"/><rect class="cls-3" x="71.47" y="195.55" width="2.81" height="2.81"/><rect class="cls-3" x="71.47" y="200.25" width="2.81" height="2.81"/></svg>