<svg xmlns="http://www.w3.org/2000/svg" viewBox="0 0 512.87 354.26"><defs><style>.cls-1{fill:#f5f5f5;}.cls-2{fill:#407bff;}.cls-12,.cls-20,.cls-3,.cls-5,.cls-7,.cls-9{fill:#fff;}.cls-3,.cls-6,.cls-8{opacity:0.2;}.cls-4{fill:#263238;}.cls-21,.cls-5{opacity:0.5;}.cls-7{opacity:0.7;}.cls-8,.cls-9{isolation:isolate;}.cls-9{opacity:0.8;}.cls-10,.cls-12,.cls-19{opacity:0.3;}.cls-11{opacity:0.1;}.cls-13{opacity:0.15;}.cls-14{opacity:0.4;}.cls-15,.cls-16,.cls-17,.cls-18,.cls-22{fill:none;stroke:#263238;}.cls-15,.cls-16,.cls-17{stroke-linecap:round;stroke-linejoin:round;}.cls-15{stroke-width:0.72px;}.cls-16,.cls-18{stroke-width:0.96px;}.cls-17{stroke-width:0.48px;}.cls-18,.cls-22{stroke-miterlimit:10;}.cls-22{stroke-width:2.89px;}</style></defs><title>hero</title><g id="Shadow"><ellipse id="_Path_" data-name="&lt;Path&gt;" class="cls-1" cx="257.78" cy="339.32" rx="193.89" ry="11.32"/></g><g id="Boxes"><rect class="cls-2" x="359.01" y="311.16" width="50.4" height="25.25"/><rect class="cls-3" x="376.4" y="311.16" width="33.01" height="25.25"/><rect class="cls-3" x="378.67" y="311.16" width="0.61" height="25.25"/><rect class="cls-3" x="381.48" y="311.16" width="0.61" height="25.25"/><rect class="cls-3" x="384.29" y="311.16" width="0.61" height="25.25"/><rect class="cls-3" x="387.1" y="311.16" width="0.61" height="25.25"/><rect class="cls-3" x="389.91" y="311.16" width="0.61" height="25.25"/><rect class="cls-3" x="392.72" y="311.16" width="0.61" height="25.25"/><rect class="cls-3" x="395.52" y="311.16" width="0.61" height="25.25"/><rect class="cls-3" x="398.33" y="311.16" width="0.61" height="25.25"/><rect class="cls-3" x="401.14" y="311.16" width="0.61" height="25.25"/><rect class="cls-3" x="403.95" y="311.16" width="0.61" height="25.25"/><rect class="cls-3" x="406.76" y="311.16" width="0.61" height="25.25"/><rect class="cls-3" x="361.05" y="311.16" width="0.61" height="25.25"/><rect class="cls-3" x="363.6" y="311.16" width="0.61" height="25.25"/><rect class="cls-3" x="366.16" y="311.16" width="0.61" height="25.25"/><rect class="cls-3" x="368.71" y="311.16" width="0.61" height="25.25"/><rect class="cls-3" x="371.26" y="311.16" width="0.61" height="25.25"/><rect class="cls-3" x="373.82" y="311.16" width="0.61" height="25.25"/><rect class="cls-4" x="392.01" y="311.26" width="50.4" height="25.25"/><rect class="cls-3" x="409.41" y="311.26" width="33.01" height="25.25"/><rect class="cls-3" x="411.68" y="311.26" width="0.61" height="25.25"/><rect class="cls-3" x="414.49" y="311.26" width="0.61" height="25.25"/><rect class="cls-3" x="417.3" y="311.26" width="0.61" height="25.25"/><rect class="cls-3" x="420.1" y="311.26" width="0.61" height="25.25"/><rect class="cls-3" x="422.91" y="311.26" width="0.61" height="25.25"/><rect class="cls-3" x="425.72" y="311.26" width="0.61" height="25.25"/><rect class="cls-3" x="428.53" y="311.26" width="0.61" height="25.25"/><rect class="cls-3" x="431.34" y="311.26" width="0.61" height="25.25"/><rect class="cls-3" x="434.15" y="311.26" width="0.61" height="25.25"/><rect class="cls-3" x="436.96" y="311.26" width="0.61" height="25.25"/><rect class="cls-3" x="439.76" y="311.26" width="0.61" height="25.25"/><rect class="cls-3" x="394.06" y="311.26" width="0.61" height="25.25"/><rect class="cls-3" x="396.61" y="311.26" width="0.61" height="25.25"/><rect class="cls-3" x="399.16" y="311.26" width="0.61" height="25.25"/><rect class="cls-3" x="401.72" y="311.26" width="0.61" height="25.25"/><rect class="cls-3" x="404.27" y="311.26" width="0.61" height="25.25"/><rect class="cls-3" x="406.82" y="311.26" width="0.61" height="25.25"/><rect class="cls-4" x="387.68" y="285.93" width="50.4" height="25.25"/><rect class="cls-5" x="387.68" y="285.93" width="50.4" height="25.25"/><rect class="cls-6" x="387.7" y="285.93" width="17.36" height="25.25" transform="translate(792.77 597.11) rotate(180)"/><rect class="cls-6" x="407.34" y="285.93" width="0.61" height="25.25"/><rect class="cls-6" x="410.15" y="285.93" width="0.61" height="25.25"/><rect class="cls-6" x="412.96" y="285.93" width="0.61" height="25.25"/><rect class="cls-6" x="415.77" y="285.93" width="0.61" height="25.25"/><rect class="cls-6" x="418.57" y="285.93" width="0.61" height="25.25"/><rect class="cls-6" x="421.38" y="285.93" width="0.61" height="25.25"/><rect class="cls-6" x="424.19" y="285.93" width="0.61" height="25.25"/><rect class="cls-6" x="427" y="285.93" width="0.61" height="25.25"/><rect class="cls-6" x="429.81" y="285.93" width="0.61" height="25.25"/><rect class="cls-6" x="432.62" y="285.93" width="0.61" height="25.25"/><rect class="cls-6" x="435.43" y="285.93" width="0.61" height="25.25"/><rect class="cls-6" x="389.72" y="285.93" width="0.61" height="25.25"/><rect class="cls-6" x="392.27" y="285.93" width="0.61" height="25.25"/><rect class="cls-6" x="394.82" y="285.93" width="0.61" height="25.25"/><rect class="cls-6" x="397.38" y="285.93" width="0.61" height="25.25"/><rect class="cls-6" x="399.93" y="285.93" width="0.61" height="25.25"/><rect class="cls-6" x="402.48" y="285.93" width="0.61" height="25.25"/></g><g id="Sand"><path d="M372.32,331s-16.93-6.31-29.57-8.48-3.45-7.58-12.64-10.66-12.6-4.12-18-9.22-14.71-2.58-21.32,4.33-24.64-9.49-29.75-11.85-1.36-3.43-9.87-9.53-9-9-15.42-7.54-10.45,9.95-16.58,15.65-10.89,4.36-12.6,7.67-13.16,10.1-13.39,11.64-2.26,11.93-5,12.18-7,5.81-7,5.81Z"/><path class="cls-7" d="M372.32,331s-16.93-6.31-29.57-8.48-3.45-7.58-12.64-10.66-12.6-4.12-18-9.22-14.71-2.58-21.32,4.33-24.64-9.49-29.75-11.85-1.36-3.43-9.87-9.53-9-9-15.42-7.54-10.45,9.95-16.58,15.65-10.89,4.36-12.6,7.67-13.16,10.1-13.39,11.64-2.26,11.93-5,12.18-7,5.81-7,5.81Z"/><path class="cls-3" d="M209.85,331s4.24-5.21,10.25-4.4a38.65,38.65,0,0,0,12.4,0c2.81-.49,0,.41,8.42-4.13s12.77-12.43,17.62-13.08,10-1.6,13.79,2.2,11.23,8,12.25,8.86,4.85.69,7.41,2,7.4,2,8.17,2.68S311.39,331,311.39,331Z"/></g><g id="Cone_1" data-name="Cone 1"><polygon class="cls-2" points="220.68 337.26 217.37 320.81 216.11 320.81 212.81 337.26 210.38 338.74 210.38 339.18 223.02 339.18 223.02 338.74 220.68 337.26"/><rect class="cls-8" x="210.38" y="338.74" width="12.64" height="0.55"/><polygon class="cls-8" points="217.37 320.81 216.11 320.81 212.77 337.21 220.64 337.21 217.37 320.81"/><polygon class="cls-9" points="219.58 331.89 218.83 328.11 214.62 328.11 213.85 331.89 219.58 331.89"/></g><g id="Cone_2" data-name="Cone 2"><polygon class="cls-2" points="405.99 337.26 402.69 320.81 401.43 320.81 398.12 337.26 395.7 338.74 395.7 339.18 408.34 339.18 408.34 338.74 405.99 337.26"/><rect class="cls-8" x="395.7" y="338.74" width="12.64" height="0.55"/><polygon class="cls-8" points="402.69 320.81 401.43 320.81 398.08 337.21 405.95 337.21 402.69 320.81"/><polygon class="cls-9" points="404.89 331.89 404.14 328.11 399.94 328.11 399.17 331.89 404.89 331.89"/></g><g id="Barrels"><rect class="cls-4" x="240.45" y="320.1" width="11.74" height="19.2"/><rect class="cls-3" x="243.19" y="320.1" width="9.02" height="19.2"/><rect class="cls-3" x="240.45" y="320.1" width="11.74" height="19.2"/><path class="cls-4" d="M252.33,320.52h-12a.21.21,0,0,1-.21-.21h0a.21.21,0,0,1,.21-.21h12a.21.21,0,0,1,.21.21h0A.21.21,0,0,1,252.33,320.52Z"/><path class="cls-4" d="M252.33,329.91h-12a.21.21,0,0,1-.21-.21h0a.21.21,0,0,1,.21-.21h12a.21.21,0,0,1,.21.21h0A.21.21,0,0,1,252.33,329.91Z"/><path class="cls-4" d="M252.33,339.3h-12a.21.21,0,0,1-.21-.21h0a.21.21,0,0,1,.21-.21h12a.21.21,0,0,1,.21.21h0A.21.21,0,0,1,252.33,339.3Z"/><rect class="cls-2" x="254.49" y="320.1" width="11.74" height="19.2"/><rect class="cls-3" x="257.23" y="320.1" width="9.02" height="19.2"/><path class="cls-4" d="M266.38,320.52h-12a.21.21,0,0,1-.21-.21h0a.21.21,0,0,1,.21-.21h12a.21.21,0,0,1,.21.21h0A.22.22,0,0,1,266.38,320.52Z"/><path class="cls-4" d="M266.38,329.91h-12a.21.21,0,0,1-.21-.21h0a.21.21,0,0,1,.21-.21h12a.21.21,0,0,1,.21.21h0A.22.22,0,0,1,266.38,329.91Z"/><path class="cls-4" d="M266.38,339.3h-12a.21.21,0,0,1-.21-.21h0a.21.21,0,0,1,.21-.21h12a.21.21,0,0,1,.21.21h0A.22.22,0,0,1,266.38,339.3Z"/></g><g id="Materials"><rect class="cls-2" x="89.35" y="308.4" width="47.19" height="4.1"/><rect class="cls-10" x="89.35" y="308.4" width="3.77" height="4.1"/><rect class="cls-10" x="90.54" y="311.24" width="1.4" height="1.26"/><rect class="cls-10" x="90.53" y="308.4" width="1.41" height="1.26"/><rect class="cls-2" x="93.69" y="308.4" width="47.19" height="4.1"/><rect class="cls-10" x="93.69" y="308.4" width="3.77" height="4.1"/><rect class="cls-10" x="94.88" y="311.24" width="1.4" height="1.26"/><rect class="cls-10" x="94.88" y="308.4" width="1.4" height="1.26"/><rect class="cls-2" x="98.03" y="308.4" width="47.2" height="4.1"/><rect class="cls-10" x="98.03" y="308.4" width="3.77" height="4.1"/><rect class="cls-10" x="99.22" y="311.24" width="1.4" height="1.26"/><rect class="cls-10" x="99.22" y="308.4" width="1.4" height="1.26"/><rect class="cls-2" x="102.38" y="308.4" width="47.19" height="4.1"/><rect class="cls-10" x="102.38" y="308.4" width="3.77" height="4.1"/><rect class="cls-10" x="103.56" y="311.24" width="1.4" height="1.26"/><rect class="cls-10" x="103.56" y="308.4" width="1.4" height="1.26"/><rect class="cls-2" x="106.72" y="308.4" width="47.19" height="4.1"/><rect class="cls-10" x="106.72" y="308.4" width="3.77" height="4.1"/><rect class="cls-10" x="107.9" y="311.24" width="1.4" height="1.26"/><rect class="cls-10" x="107.9" y="308.4" width="1.41" height="1.26"/><rect class="cls-2" x="90.06" y="312.5" width="47.2" height="4.11"/><rect class="cls-10" x="90.06" y="312.5" width="3.77" height="4.11"/><rect class="cls-10" x="91.25" y="315.35" width="1.4" height="1.26"/><rect class="cls-10" x="91.25" y="312.5" width="1.4" height="1.26"/><rect class="cls-2" x="94.41" y="312.5" width="47.19" height="4.1"/><rect class="cls-10" x="94.41" y="312.5" width="3.77" height="4.1"/><rect class="cls-10" x="95.59" y="315.35" width="1.4" height="1.26"/><rect class="cls-10" x="95.59" y="312.5" width="1.4" height="1.26"/><rect class="cls-2" x="98.75" y="312.5" width="47.19" height="4.1"/><rect class="cls-10" x="98.75" y="312.5" width="3.77" height="4.1"/><rect class="cls-10" x="99.93" y="315.35" width="1.4" height="1.26"/><rect class="cls-10" x="99.93" y="312.5" width="1.4" height="1.26"/><rect class="cls-2" x="103.09" y="312.5" width="47.19" height="4.1"/><rect class="cls-10" x="103.09" y="312.5" width="3.77" height="4.1"/><rect class="cls-10" x="104.28" y="315.35" width="1.4" height="1.26"/><rect class="cls-10" x="104.28" y="312.5" width="1.4" height="1.26"/><rect class="cls-2" x="107.43" y="312.5" width="47.19" height="4.1"/><rect class="cls-10" x="107.43" y="312.5" width="3.77" height="4.1"/><rect class="cls-10" x="108.62" y="315.35" width="1.4" height="1.26"/><rect class="cls-10" x="108.62" y="312.5" width="1.4" height="1.26"/><rect class="cls-2" x="88.59" y="316.61" width="47.19" height="4.1"/><rect class="cls-10" x="88.59" y="316.61" width="3.77" height="4.1"/><rect class="cls-10" x="89.77" y="319.45" width="1.4" height="1.26"/><rect class="cls-10" x="89.77" y="316.61" width="1.4" height="1.25"/><rect class="cls-2" x="92.93" y="316.6" width="47.19" height="4.1"/><rect class="cls-10" x="92.93" y="316.6" width="3.77" height="4.1"/><rect class="cls-10" x="94.12" y="319.45" width="1.4" height="1.26"/><rect class="cls-10" x="94.12" y="316.6" width="1.4" height="1.26"/><rect class="cls-2" x="97.27" y="316.6" width="47.19" height="4.1"/><rect class="cls-10" x="97.27" y="316.6" width="3.77" height="4.1"/><rect class="cls-10" x="98.46" y="319.45" width="1.4" height="1.26"/><rect class="cls-10" x="98.46" y="316.6" width="1.4" height="1.26"/><rect class="cls-2" x="101.62" y="316.6" width="47.19" height="4.1"/><rect class="cls-10" x="101.62" y="316.6" width="3.77" height="4.1"/><rect class="cls-10" x="102.8" y="319.45" width="1.4" height="1.26"/><rect class="cls-10" x="102.8" y="316.6" width="1.4" height="1.26"/><rect class="cls-2" x="105.96" y="316.6" width="47.19" height="4.11"/><rect class="cls-10" x="105.96" y="316.6" width="3.77" height="4.1"/><rect class="cls-10" x="107.14" y="319.45" width="1.4" height="1.26"/><rect class="cls-10" x="107.14" y="316.6" width="1.4" height="1.26"/><rect class="cls-2" x="89.77" y="320.7" width="47.19" height="4.1"/><rect class="cls-10" x="89.77" y="320.7" width="3.77" height="4.1"/><rect class="cls-10" x="90.96" y="323.55" width="1.4" height="1.26"/><rect class="cls-10" x="90.96" y="320.7" width="1.4" height="1.26"/><rect class="cls-2" x="94.12" y="320.7" width="47.19" height="4.1"/><rect class="cls-10" x="94.12" y="320.7" width="3.77" height="4.1"/><rect class="cls-10" x="95.3" y="323.55" width="1.4" height="1.26"/><rect class="cls-10" x="95.3" y="320.7" width="1.4" height="1.26"/><rect class="cls-2" x="98.46" y="320.7" width="47.19" height="4.1"/><rect class="cls-10" x="98.46" y="320.7" width="3.77" height="4.1"/><rect class="cls-10" x="99.64" y="323.55" width="1.4" height="1.26"/><rect class="cls-10" x="99.64" y="320.7" width="1.4" height="1.26"/><rect class="cls-2" x="102.8" y="320.7" width="47.19" height="4.1"/><rect class="cls-10" x="102.8" y="320.7" width="3.77" height="4.1"/><rect class="cls-10" x="103.98" y="323.55" width="1.4" height="1.26"/><rect class="cls-10" x="103.98" y="320.7" width="1.4" height="1.26"/><rect class="cls-2" x="107.14" y="320.71" width="47.19" height="4.1"/><rect class="cls-10" x="107.14" y="320.7" width="3.77" height="4.1"/><rect class="cls-10" x="108.33" y="323.55" width="1.4" height="1.26"/><rect class="cls-10" x="108.33" y="320.7" width="1.4" height="1.26"/><rect class="cls-2" x="89.35" y="324.81" width="47.19" height="4.1"/><rect class="cls-10" x="89.35" y="324.81" width="3.77" height="4.1"/><rect class="cls-10" x="90.54" y="327.65" width="1.4" height="1.26"/><rect class="cls-10" x="90.54" y="324.81" width="1.4" height="1.26"/><rect class="cls-2" x="93.69" y="324.81" width="47.19" height="4.1"/><rect class="cls-10" x="93.69" y="324.81" width="3.77" height="4.1"/><rect class="cls-10" x="94.88" y="327.65" width="1.4" height="1.26"/><rect class="cls-10" x="94.88" y="324.81" width="1.4" height="1.26"/><rect class="cls-2" x="98.04" y="324.81" width="47.19" height="4.1"/><rect class="cls-10" x="98.04" y="324.81" width="3.77" height="4.1"/><rect class="cls-10" x="99.22" y="327.65" width="1.4" height="1.26"/><rect class="cls-10" x="99.22" y="324.81" width="1.4" height="1.26"/><rect class="cls-2" x="102.38" y="324.81" width="47.19" height="4.1"/><rect class="cls-10" x="102.38" y="324.81" width="3.77" height="4.1"/><rect class="cls-10" x="103.56" y="327.65" width="1.4" height="1.26"/><rect class="cls-10" x="103.56" y="324.81" width="1.4" height="1.26"/><rect class="cls-2" x="106.72" y="324.81" width="47.19" height="4.1"/><rect class="cls-10" x="106.72" y="324.81" width="3.77" height="4.1"/><rect class="cls-10" x="107.9" y="327.65" width="1.4" height="1.26"/><rect class="cls-10" x="107.9" y="324.81" width="1.4" height="1.26"/><rect class="cls-2" x="88.59" y="328.91" width="47.19" height="4.1"/><rect class="cls-10" x="88.59" y="328.91" width="3.77" height="4.1"/><rect class="cls-10" x="89.77" y="331.76" width="1.4" height="1.26"/><rect class="cls-10" x="89.77" y="328.91" width="1.4" height="1.26"/><rect class="cls-2" x="92.93" y="328.91" width="47.19" height="4.1"/><rect class="cls-10" x="92.93" y="328.91" width="3.77" height="4.1"/><rect class="cls-10" x="94.12" y="331.76" width="1.4" height="1.26"/><rect class="cls-10" x="94.12" y="328.91" width="1.4" height="1.26"/><rect class="cls-2" x="97.27" y="328.91" width="47.19" height="4.1"/><rect class="cls-10" x="97.27" y="328.91" width="3.77" height="4.1"/><rect class="cls-10" x="98.46" y="331.76" width="1.4" height="1.26"/><rect class="cls-10" x="98.46" y="328.91" width="1.4" height="1.26"/><rect class="cls-2" x="101.62" y="328.91" width="47.19" height="4.1"/><rect class="cls-10" x="101.62" y="328.91" width="3.77" height="4.1"/><rect class="cls-10" x="102.8" y="331.76" width="1.4" height="1.26"/><rect class="cls-10" x="102.8" y="328.91" width="1.4" height="1.26"/><rect class="cls-2" x="105.96" y="328.91" width="47.19" height="4.1"/><rect class="cls-10" x="105.96" y="328.91" width="3.77" height="4.1"/><rect class="cls-10" x="107.14" y="331.76" width="1.4" height="1.26"/><rect class="cls-10" x="107.14" y="328.91" width="1.4" height="1.26"/><rect class="cls-2" x="89.35" y="333.01" width="47.19" height="4.11"/><rect class="cls-10" x="89.35" y="333.01" width="3.77" height="4.1"/><rect class="cls-10" x="90.54" y="335.86" width="1.4" height="1.26"/><rect class="cls-10" x="90.54" y="333.01" width="1.4" height="1.26"/><rect class="cls-2" x="93.69" y="333.01" width="47.19" height="4.11"/><rect class="cls-10" x="93.69" y="333.01" width="3.77" height="4.1"/><rect class="cls-10" x="94.88" y="335.86" width="1.4" height="1.26"/><rect class="cls-10" x="94.88" y="333.01" width="1.4" height="1.26"/><rect class="cls-2" x="98.03" y="333.01" width="47.2" height="4.11"/><rect class="cls-10" x="98.04" y="333.01" width="3.77" height="4.1"/><rect class="cls-10" x="99.22" y="335.86" width="1.4" height="1.26"/><rect class="cls-10" x="99.22" y="333.01" width="1.4" height="1.26"/><rect class="cls-2" x="102.38" y="333.01" width="47.19" height="4.11"/><rect class="cls-10" x="102.38" y="333.01" width="3.77" height="4.1"/><rect class="cls-10" x="103.56" y="335.86" width="1.4" height="1.26"/><rect class="cls-10" x="103.56" y="333.01" width="1.4" height="1.26"/><rect class="cls-2" x="106.72" y="333.01" width="47.19" height="4.11"/><rect class="cls-10" x="106.72" y="333.01" width="3.77" height="4.1"/><rect class="cls-10" x="107.9" y="335.86" width="1.4" height="1.26"/><rect class="cls-10" x="107.9" y="333.01" width="1.4" height="1.26"/><rect class="cls-11" x="109.73" y="331.76" width="43.42" height="1.25"/><rect class="cls-11" x="109.73" y="328.91" width="43.42" height="0.35"/><rect class="cls-11" x="110.49" y="324.81" width="43.42" height="0.35"/><rect class="cls-11" x="109.73" y="316.6" width="43.42" height="0.36"/><rect class="cls-11" x="109.73" y="319.58" width="43.42" height="1.13"/><rect class="cls-11" x="110.49" y="311.31" width="43.42" height="1.13"/><rect class="cls-4" x="82.77" y="337.12" width="77.67" height="2.79"/><rect class="cls-12" x="82.77" y="337.12" width="77.67" height="2.79"/><rect class="cls-12" x="111.06" y="337.12" width="49.38" height="2.79"/><polygon class="cls-11" points="154.62 316.6 154.62 312.5 153.91 312.5 153.91 308.4 138.54 308.4 124.37 308.4 89.35 308.4 89.35 312.5 90.06 312.5 90.06 316.61 88.59 316.61 88.59 317.86 121.23 317.86 120.47 319.58 119.97 320.71 119.96 320.73 121.56 320.73 119.68 324.81 119.11 324.81 118.96 325.16 117.37 328.91 116.73 328.91 116.6 329.26 115.71 331.76 115.26 333.01 115.97 333.01 114.15 337.12 153.91 337.12 153.91 333.01 153.15 333.01 153.15 328.91 153.91 328.91 153.91 324.81 154.33 324.81 154.33 320.71 153.15 320.71 153.15 316.6 154.62 316.6"/><rect class="cls-2" x="90.96" y="301.49" width="47.19" height="4.1"/><rect class="cls-7" x="90.96" y="301.49" width="47.19" height="4.1"/><rect class="cls-13" x="90.96" y="301.48" width="3.77" height="4.1"/><rect class="cls-13" x="92.14" y="301.48" width="1.4" height="1.26"/><rect class="cls-13" x="92.14" y="304.33" width="1.4" height="1.26"/><rect class="cls-2" x="95.37" y="301.49" width="47.19" height="4.1"/><rect class="cls-7" x="95.37" y="301.49" width="47.19" height="4.1"/><rect class="cls-13" x="95.37" y="301.48" width="3.77" height="4.1"/><rect class="cls-13" x="96.56" y="301.48" width="1.4" height="1.26"/><rect class="cls-13" x="96.56" y="304.33" width="1.4" height="1.26"/><rect class="cls-2" x="99.78" y="301.49" width="47.2" height="4.1"/><rect class="cls-7" x="99.78" y="301.49" width="47.2" height="4.1"/><rect class="cls-13" x="99.79" y="301.48" width="3.77" height="4.1"/><rect class="cls-13" x="100.97" y="301.48" width="1.4" height="1.26"/><rect class="cls-13" x="100.97" y="304.33" width="1.4" height="1.26"/><rect class="cls-2" x="104.2" y="301.49" width="47.19" height="4.1"/><rect class="cls-7" x="104.2" y="301.49" width="47.19" height="4.1"/><rect class="cls-13" x="104.2" y="301.48" width="3.77" height="4.1"/><rect class="cls-13" x="105.38" y="301.48" width="1.4" height="1.26"/><rect class="cls-13" x="105.38" y="304.33" width="1.4" height="1.26"/><rect class="cls-2" x="108.61" y="301.49" width="47.2" height="4.1"/><rect class="cls-7" x="108.61" y="301.49" width="47.2" height="4.1"/><rect class="cls-13" x="108.61" y="301.48" width="3.77" height="4.1"/><rect class="cls-13" x="109.8" y="301.48" width="1.4" height="1.26"/><rect class="cls-13" x="109.8" y="304.33" width="1.4" height="1.26"/><rect class="cls-2" x="92.56" y="297.41" width="47.19" height="4.1"/><rect class="cls-7" x="92.56" y="297.41" width="47.19" height="4.1"/><rect class="cls-13" x="92.56" y="297.41" width="3.77" height="4.1"/><rect class="cls-13" x="93.75" y="297.41" width="1.4" height="1.26"/><rect class="cls-13" x="93.75" y="300.26" width="1.4" height="1.26"/><rect class="cls-2" x="96.98" y="297.41" width="47.19" height="4.1"/><rect class="cls-7" x="96.98" y="297.41" width="47.19" height="4.1"/><rect class="cls-13" x="96.98" y="297.41" width="3.77" height="4.1"/><rect class="cls-13" x="98.16" y="297.41" width="1.4" height="1.26"/><rect class="cls-13" x="98.16" y="300.26" width="1.4" height="1.26"/><rect class="cls-2" x="101.39" y="297.41" width="47.19" height="4.1"/><rect class="cls-7" x="101.39" y="297.41" width="47.19" height="4.1"/><rect class="cls-13" x="101.39" y="297.41" width="3.77" height="4.1"/><rect class="cls-13" x="102.58" y="297.41" width="1.4" height="1.26"/><rect class="cls-13" x="102.58" y="300.26" width="1.4" height="1.26"/><rect class="cls-2" x="105.81" y="297.41" width="47.19" height="4.1"/><rect class="cls-7" x="105.81" y="297.41" width="47.19" height="4.1"/><rect class="cls-13" x="105.81" y="297.41" width="3.77" height="4.1"/><rect class="cls-13" x="106.99" y="297.41" width="1.4" height="1.26"/><rect class="cls-13" x="106.99" y="300.26" width="1.4" height="1.26"/><rect class="cls-2" x="110.22" y="297.42" width="47.19" height="4.1"/><rect class="cls-7" x="110.22" y="297.42" width="47.19" height="4.1"/><rect class="cls-13" x="110.22" y="297.41" width="3.77" height="4.1"/><rect class="cls-13" x="111.4" y="297.41" width="1.4" height="1.26"/><rect class="cls-13" x="111.4" y="300.26" width="1.4" height="1.26"/><rect class="cls-2" x="90.11" y="293.34" width="47.19" height="4.1"/><rect class="cls-7" x="90.11" y="293.34" width="47.19" height="4.1"/><rect class="cls-13" x="90.11" y="293.34" width="3.77" height="4.1"/><rect class="cls-13" x="91.29" y="293.34" width="1.4" height="1.26"/><rect class="cls-13" x="91.29" y="296.19" width="1.4" height="1.26"/><rect class="cls-2" x="94.52" y="293.34" width="47.19" height="4.1"/><rect class="cls-7" x="94.52" y="293.34" width="47.19" height="4.1"/><rect class="cls-13" x="94.52" y="293.34" width="3.77" height="4.1"/><rect class="cls-13" x="95.71" y="293.34" width="1.4" height="1.26"/><rect class="cls-13" x="95.71" y="296.19" width="1.4" height="1.26"/><rect class="cls-2" x="98.94" y="293.34" width="47.19" height="4.1"/><rect class="cls-7" x="98.94" y="293.34" width="47.19" height="4.1"/><rect class="cls-13" x="98.94" y="293.34" width="3.77" height="4.1"/><rect class="cls-13" x="100.12" y="293.34" width="1.4" height="1.26"/><rect class="cls-13" x="100.12" y="296.19" width="1.4" height="1.26"/><rect class="cls-2" x="103.35" y="293.34" width="47.19" height="4.1"/><rect class="cls-7" x="103.35" y="293.34" width="47.19" height="4.1"/><rect class="cls-13" x="103.35" y="293.34" width="3.77" height="4.1"/><rect class="cls-13" x="104.54" y="293.34" width="1.4" height="1.26"/><rect class="cls-13" x="104.54" y="296.19" width="1.4" height="1.26"/><rect class="cls-2" x="107.76" y="293.35" width="47.2" height="4.1"/><rect class="cls-7" x="107.76" y="293.35" width="47.2" height="4.1"/><rect class="cls-13" x="107.77" y="293.34" width="3.77" height="4.1"/><rect class="cls-13" x="108.95" y="293.34" width="1.4" height="1.26"/><rect class="cls-13" x="108.95" y="296.19" width="1.4" height="1.26"/><rect class="cls-2" x="91.38" y="289.27" width="47.19" height="4.1"/><rect class="cls-7" x="91.38" y="289.27" width="47.19" height="4.1"/><rect class="cls-13" x="91.38" y="289.27" width="3.77" height="4.1"/><rect class="cls-13" x="92.56" y="289.27" width="1.4" height="1.26"/><rect class="cls-13" x="92.56" y="292.12" width="1.4" height="1.26"/><rect class="cls-2" x="95.8" y="289.27" width="47.19" height="4.1"/><rect class="cls-7" x="95.8" y="289.27" width="47.19" height="4.1"/><rect class="cls-13" x="95.8" y="289.27" width="3.77" height="4.1"/><rect class="cls-13" x="96.98" y="289.27" width="1.4" height="1.26"/><rect class="cls-13" x="96.98" y="292.12" width="1.4" height="1.26"/><rect class="cls-2" x="100.21" y="289.27" width="47.19" height="4.1"/><rect class="cls-7" x="100.21" y="289.27" width="47.19" height="4.1"/><rect class="cls-13" x="100.21" y="289.27" width="3.77" height="4.1"/><rect class="cls-13" x="101.39" y="289.27" width="1.4" height="1.26"/><rect class="cls-13" x="101.39" y="292.12" width="1.4" height="1.26"/><rect class="cls-2" x="104.62" y="289.27" width="47.19" height="4.1"/><rect class="cls-7" x="104.62" y="289.27" width="47.19" height="4.1"/><rect class="cls-13" x="104.62" y="289.27" width="3.77" height="4.1"/><rect class="cls-13" x="105.81" y="289.27" width="1.4" height="1.26"/><rect class="cls-13" x="105.81" y="292.12" width="1.4" height="1.26"/><rect class="cls-2" x="109.04" y="289.28" width="47.19" height="4.1"/><rect class="cls-7" x="109.04" y="289.28" width="47.19" height="4.1"/><rect class="cls-13" x="109.04" y="289.27" width="3.77" height="4.1"/><rect class="cls-13" x="110.22" y="289.27" width="1.4" height="1.26"/><rect class="cls-13" x="110.22" y="292.12" width="1.4" height="1.26"/><rect class="cls-2" x="89.28" y="285.2" width="47.19" height="4.1"/><rect class="cls-7" x="89.28" y="285.2" width="47.19" height="4.1"/><rect class="cls-13" x="89.28" y="285.2" width="3.77" height="4.1"/><rect class="cls-13" x="90.46" y="285.2" width="1.4" height="1.26"/><rect class="cls-13" x="90.46" y="288.05" width="1.4" height="1.26"/><rect class="cls-2" x="93.69" y="285.2" width="47.19" height="4.1"/><rect class="cls-7" x="93.69" y="285.2" width="47.19" height="4.1"/><rect class="cls-13" x="93.69" y="285.2" width="3.77" height="4.1"/><rect class="cls-13" x="94.88" y="285.2" width="1.4" height="1.26"/><rect class="cls-13" x="94.88" y="288.05" width="1.4" height="1.26"/><rect class="cls-2" x="98.11" y="285.2" width="47.19" height="4.1"/><rect class="cls-7" x="98.11" y="285.2" width="47.19" height="4.1"/><rect class="cls-13" x="98.11" y="285.2" width="3.77" height="4.1"/><rect class="cls-13" x="99.29" y="285.2" width="1.4" height="1.26"/><rect class="cls-13" x="99.29" y="288.05" width="1.4" height="1.26"/><rect class="cls-2" x="102.52" y="285.2" width="47.19" height="4.1"/><rect class="cls-7" x="102.52" y="285.2" width="47.19" height="4.1"/><rect class="cls-13" x="102.52" y="285.2" width="3.77" height="4.1"/><rect class="cls-13" x="103.7" y="285.2" width="1.4" height="1.26"/><rect class="cls-13" x="103.7" y="288.05" width="1.4" height="1.26"/><rect class="cls-2" x="106.93" y="285.21" width="47.2" height="4.1"/><rect class="cls-7" x="106.93" y="285.21" width="47.2" height="4.1"/><rect class="cls-13" x="106.93" y="285.2" width="3.77" height="4.1"/><rect class="cls-13" x="108.12" y="285.2" width="1.4" height="1.26"/><rect class="cls-13" x="108.12" y="288.05" width="1.4" height="1.26"/><rect class="cls-2" x="90.96" y="281.13" width="47.19" height="4.1"/><rect class="cls-7" x="90.96" y="281.13" width="47.19" height="4.1"/><rect class="cls-13" x="90.96" y="281.13" width="3.77" height="4.1"/><rect class="cls-13" x="92.14" y="281.13" width="1.4" height="1.26"/><rect class="cls-13" x="92.14" y="283.98" width="1.4" height="1.26"/><rect class="cls-2" x="95.37" y="281.13" width="47.19" height="4.1"/><rect class="cls-7" x="95.37" y="281.13" width="47.19" height="4.1"/><rect class="cls-13" x="95.37" y="281.13" width="3.77" height="4.1"/><rect class="cls-13" x="96.56" y="281.13" width="1.4" height="1.26"/><rect class="cls-13" x="96.56" y="283.98" width="1.4" height="1.26"/><rect class="cls-2" x="99.79" y="281.13" width="47.19" height="4.1"/><rect class="cls-7" x="99.79" y="281.13" width="47.19" height="4.1"/><rect class="cls-13" x="99.79" y="281.13" width="3.77" height="4.1"/><rect class="cls-13" x="100.97" y="281.13" width="1.4" height="1.26"/><rect class="cls-13" x="100.97" y="283.98" width="1.4" height="1.26"/><rect class="cls-2" x="104.2" y="281.13" width="47.19" height="4.1"/><rect class="cls-7" x="104.2" y="281.13" width="47.19" height="4.1"/><rect class="cls-13" x="104.2" y="281.13" width="3.77" height="4.1"/><rect class="cls-13" x="105.38" y="281.13" width="1.4" height="1.26"/><rect class="cls-13" x="105.38" y="283.98" width="1.4" height="1.26"/><rect class="cls-2" x="108.61" y="281.14" width="47.2" height="4.1"/><rect class="cls-7" x="108.61" y="281.14" width="47.2" height="4.1"/><rect class="cls-13" x="108.61" y="281.13" width="3.77" height="4.1"/><rect class="cls-13" x="109.8" y="281.13" width="1.4" height="1.26"/><rect class="cls-13" x="109.8" y="283.98" width="1.4" height="1.26"/><rect class="cls-2" x="90.56" y="277.07" width="47.19" height="4.1"/><rect class="cls-7" x="90.56" y="277.07" width="47.19" height="4.1"/><rect class="cls-13" x="90.56" y="277.06" width="3.77" height="4.1"/><rect class="cls-13" x="91.75" y="277.06" width="1.4" height="1.26"/><rect class="cls-13" x="91.75" y="279.91" width="1.4" height="1.26"/><rect class="cls-2" x="94.98" y="277.07" width="47.19" height="4.1"/><rect class="cls-7" x="94.98" y="277.07" width="47.19" height="4.1"/><rect class="cls-13" x="94.98" y="277.06" width="3.77" height="4.1"/><rect class="cls-13" x="96.16" y="277.06" width="1.4" height="1.26"/><rect class="cls-13" x="96.16" y="279.91" width="1.4" height="1.26"/><rect class="cls-2" x="99.39" y="277.07" width="47.19" height="4.1"/><rect class="cls-7" x="99.39" y="277.07" width="47.19" height="4.1"/><rect class="cls-13" x="99.39" y="277.06" width="3.77" height="4.1"/><rect class="cls-13" x="100.57" y="277.06" width="1.4" height="1.26"/><rect class="cls-13" x="100.57" y="279.91" width="1.4" height="1.26"/><rect class="cls-2" x="103.8" y="277.07" width="47.2" height="4.1"/><rect class="cls-7" x="103.8" y="277.07" width="47.2" height="4.1"/><rect class="cls-13" x="103.81" y="277.06" width="3.77" height="4.1"/><rect class="cls-13" x="104.99" y="277.06" width="1.4" height="1.26"/><rect class="cls-13" x="104.99" y="279.91" width="1.4" height="1.26"/><rect class="cls-2" x="108.22" y="277.07" width="47.19" height="4.1"/><rect class="cls-7" x="108.22" y="277.07" width="47.19" height="4.1"/><rect class="cls-13" x="108.22" y="277.06" width="3.77" height="4.1"/><rect class="cls-13" x="109.4" y="277.06" width="1.4" height="1.26"/><rect class="cls-13" x="109.4" y="279.91" width="1.4" height="1.26"/><rect class="cls-4" x="85.01" y="305.58" width="77.67" height="2.79"/><rect class="cls-12" x="85.01" y="305.58" width="77.67" height="2.79"/><rect class="cls-12" x="113.3" y="305.58" width="49.39" height="2.79"/><rect class="cls-11" x="111.99" y="280.86" width="43.42" height="0.31"/><rect class="cls-11" x="110.7" y="285.24" width="43.43" height="0.98"/><rect class="cls-11" x="111.53" y="293.35" width="43.43" height="0.98"/><rect class="cls-11" x="112.38" y="301.52" width="43.43" height="0.98"/><rect class="cls-11" x="111.53" y="297.24" width="43.43" height="0.21"/><rect class="cls-11" x="110.7" y="289.11" width="43.43" height="0.17"/><polygon class="cls-11" points="157.41 297.42 157.41 301.52 155.81 301.52 155.81 305.59 116.16 305.59 117.98 302.5 118.55 301.52 118.57 301.49 119.39 301.49 121.98 297.45 122 297.42 122.05 297.34 120.21 297.34 120.27 297.24 121.96 294.33 122.51 293.38 122.53 293.35 123.84 293.35 126.11 289.37 125.63 289.37 125.67 289.31 125.69 289.28 125.79 289.11 127.61 286.22 128.22 285.24 129.21 285.24 129.23 285.21 131.48 281.17 131.17 281.17 131.19 281.14 131.36 280.86 133.7 277.07 155.41 277.07 155.41 281.14 155.81 281.14 155.81 285.24 154.13 285.24 154.13 289.28 156.23 289.28 156.23 293.38 154.96 293.38 154.96 297.42 157.41 297.42"/><rect class="cls-4" x="129.87" y="308.37" width="47.19" height="4.11"/><rect class="cls-5" x="129.87" y="308.37" width="47.19" height="4.11"/><rect class="cls-6" x="129.87" y="308.37" width="3.77" height="4.11"/><rect class="cls-6" x="131.05" y="308.37" width="1.41" height="1.26"/><rect class="cls-6" x="131.06" y="311.22" width="1.4" height="1.26"/><rect class="cls-4" x="134.21" y="308.37" width="47.19" height="4.11"/><rect class="cls-5" x="134.21" y="308.37" width="47.19" height="4.11"/><rect class="cls-6" x="134.21" y="308.37" width="3.77" height="4.11"/><rect class="cls-6" x="135.39" y="308.37" width="1.41" height="1.26"/><rect class="cls-6" x="135.39" y="311.22" width="1.4" height="1.26"/><rect class="cls-4" x="138.55" y="308.37" width="47.19" height="4.11"/><rect class="cls-5" x="138.55" y="308.37" width="47.19" height="4.11"/><rect class="cls-6" x="138.55" y="308.37" width="3.77" height="4.11"/><rect class="cls-6" x="139.73" y="308.37" width="1.4" height="1.26"/><rect class="cls-6" x="139.73" y="311.22" width="1.4" height="1.26"/><rect class="cls-4" x="142.88" y="308.37" width="47.2" height="4.11"/><rect class="cls-5" x="142.88" y="308.37" width="47.2" height="4.11"/><rect class="cls-6" x="142.88" y="308.37" width="3.77" height="4.11"/><rect class="cls-6" x="144.07" y="308.37" width="1.4" height="1.26"/><rect class="cls-6" x="144.07" y="311.22" width="1.4" height="1.26"/><rect class="cls-4" x="147.12" y="308.37" width="47.19" height="4.11"/><rect class="cls-5" x="147.12" y="308.37" width="47.19" height="4.11"/><rect class="cls-6" x="147.12" y="308.37" width="3.77" height="4.11"/><rect class="cls-6" x="148.3" y="308.37" width="1.4" height="1.26"/><rect class="cls-6" x="148.3" y="311.22" width="1.4" height="1.26"/><rect class="cls-4" x="129.94" y="332.99" width="47.19" height="4.1"/><rect class="cls-5" x="129.94" y="332.99" width="47.19" height="4.1"/><rect class="cls-6" x="129.94" y="332.99" width="3.77" height="4.1"/><rect class="cls-6" x="131.12" y="332.99" width="1.4" height="1.26"/><rect class="cls-6" x="131.12" y="335.84" width="1.4" height="1.26"/><rect class="cls-4" x="134.27" y="332.99" width="47.19" height="4.1"/><rect class="cls-5" x="134.27" y="332.99" width="47.19" height="4.1"/><rect class="cls-6" x="134.27" y="332.99" width="3.77" height="4.1"/><rect class="cls-6" x="135.46" y="332.99" width="1.4" height="1.26"/><rect class="cls-6" x="135.46" y="335.84" width="1.4" height="1.26"/><rect class="cls-4" x="138.61" y="332.99" width="47.19" height="4.1"/><rect class="cls-5" x="138.61" y="332.99" width="47.19" height="4.1"/><rect class="cls-6" x="138.61" y="332.99" width="3.77" height="4.1"/><rect class="cls-6" x="139.79" y="332.99" width="1.4" height="1.26"/><rect class="cls-6" x="139.79" y="335.84" width="1.4" height="1.26"/><rect class="cls-4" x="142.95" y="332.99" width="47.19" height="4.1"/><rect class="cls-5" x="142.95" y="332.99" width="47.19" height="4.1"/><rect class="cls-6" x="142.95" y="332.99" width="3.77" height="4.1"/><rect class="cls-6" x="144.13" y="332.99" width="1.4" height="1.26"/><rect class="cls-6" x="144.13" y="335.84" width="1.4" height="1.26"/><rect class="cls-4" x="147.18" y="332.99" width="47.19" height="4.1"/><rect class="cls-5" x="147.18" y="332.99" width="47.19" height="4.1"/><rect class="cls-6" x="147.18" y="332.99" width="3.77" height="4.1"/><rect class="cls-6" x="148.36" y="332.99" width="1.4" height="1.26"/><rect class="cls-6" x="148.36" y="335.84" width="1.4" height="1.26"/><rect class="cls-4" x="131.06" y="328.89" width="47.19" height="4.1"/><rect class="cls-5" x="131.06" y="328.89" width="47.19" height="4.1"/><rect class="cls-6" x="131.06" y="328.89" width="3.77" height="4.1"/><rect class="cls-6" x="132.24" y="328.89" width="1.4" height="1.26"/><rect class="cls-6" x="132.24" y="331.73" width="1.4" height="1.26"/><rect class="cls-4" x="135.39" y="328.89" width="47.19" height="4.1"/><rect class="cls-5" x="135.39" y="328.89" width="47.19" height="4.1"/><rect class="cls-6" x="135.39" y="328.89" width="3.77" height="4.1"/><rect class="cls-6" x="136.58" y="328.89" width="1.4" height="1.26"/><rect class="cls-6" x="136.58" y="331.73" width="1.4" height="1.26"/><rect class="cls-4" x="139.73" y="328.89" width="47.19" height="4.1"/><rect class="cls-5" x="139.73" y="328.89" width="47.19" height="4.1"/><rect class="cls-6" x="139.73" y="328.89" width="3.77" height="4.1"/><rect class="cls-6" x="140.92" y="328.89" width="1.4" height="1.26"/><rect class="cls-6" x="140.92" y="331.73" width="1.4" height="1.26"/><rect class="cls-4" x="144.07" y="328.89" width="47.19" height="4.1"/><rect class="cls-5" x="144.07" y="328.89" width="47.19" height="4.1"/><rect class="cls-6" x="144.07" y="328.89" width="3.77" height="4.1"/><rect class="cls-6" x="145.25" y="328.89" width="1.4" height="1.26"/><rect class="cls-6" x="145.25" y="331.73" width="1.4" height="1.26"/><rect class="cls-4" x="148.3" y="328.89" width="47.19" height="4.1"/><rect class="cls-5" x="148.3" y="328.89" width="47.19" height="4.1"/><rect class="cls-6" x="148.3" y="328.89" width="3.77" height="4.1"/><rect class="cls-6" x="149.49" y="328.89" width="1.4" height="1.26"/><rect class="cls-6" x="149.49" y="331.73" width="1.4" height="1.26"/><rect class="cls-4" x="129.87" y="324.78" width="47.19" height="4.1"/><rect class="cls-5" x="129.87" y="324.78" width="47.19" height="4.1"/><rect class="cls-6" x="129.87" y="324.78" width="3.77" height="4.1"/><rect class="cls-6" x="131.06" y="324.78" width="1.4" height="1.26"/><rect class="cls-6" x="131.06" y="327.63" width="1.4" height="1.26"/><rect class="cls-4" x="134.21" y="324.78" width="47.19" height="4.1"/><rect class="cls-5" x="134.21" y="324.78" width="47.19" height="4.1"/><rect class="cls-6" x="134.21" y="324.78" width="3.77" height="4.1"/><rect class="cls-6" x="135.39" y="324.78" width="1.4" height="1.26"/><rect class="cls-6" x="135.39" y="327.63" width="1.4" height="1.26"/><rect class="cls-4" x="138.55" y="324.78" width="47.19" height="4.1"/><rect class="cls-5" x="138.55" y="324.78" width="47.19" height="4.1"/><rect class="cls-6" x="138.55" y="324.78" width="3.77" height="4.1"/><rect class="cls-6" x="139.73" y="324.78" width="1.4" height="1.26"/><rect class="cls-6" x="139.73" y="327.63" width="1.4" height="1.26"/><rect class="cls-4" x="142.89" y="324.78" width="47.19" height="4.1"/><rect class="cls-5" x="142.89" y="324.78" width="47.19" height="4.1"/><rect class="cls-6" x="142.89" y="324.78" width="3.77" height="4.1"/><rect class="cls-6" x="144.07" y="324.78" width="1.4" height="1.26"/><rect class="cls-6" x="144.07" y="327.63" width="1.4" height="1.26"/><rect class="cls-4" x="147.12" y="324.78" width="47.19" height="4.1"/><rect class="cls-5" x="147.12" y="324.78" width="47.19" height="4.1"/><rect class="cls-6" x="147.12" y="324.78" width="3.77" height="4.1"/><rect class="cls-6" x="148.3" y="324.78" width="1.4" height="1.26"/><rect class="cls-6" x="148.3" y="327.63" width="1.4" height="1.26"/><rect class="cls-4" x="130.36" y="320.68" width="47.19" height="4.1"/><rect class="cls-5" x="130.36" y="320.68" width="47.19" height="4.1"/><rect class="cls-6" x="130.36" y="320.68" width="3.77" height="4.1"/><rect class="cls-6" x="131.54" y="320.68" width="1.4" height="1.26"/><rect class="cls-6" x="131.54" y="323.53" width="1.4" height="1.26"/><rect class="cls-4" x="134.69" y="320.68" width="47.19" height="4.1"/><rect class="cls-5" x="134.69" y="320.68" width="47.19" height="4.1"/><rect class="cls-6" x="134.69" y="320.68" width="3.77" height="4.1"/><rect class="cls-6" x="135.88" y="320.68" width="1.4" height="1.26"/><rect class="cls-6" x="135.88" y="323.53" width="1.4" height="1.26"/><rect class="cls-4" x="139.03" y="320.68" width="47.19" height="4.1"/><rect class="cls-5" x="139.03" y="320.68" width="47.19" height="4.1"/><rect class="cls-6" x="139.03" y="320.68" width="3.77" height="4.1"/><rect class="cls-6" x="140.21" y="320.68" width="1.4" height="1.26"/><rect class="cls-6" x="140.21" y="323.53" width="1.4" height="1.26"/><rect class="cls-4" x="143.37" y="320.68" width="47.19" height="4.1"/><rect class="cls-5" x="143.37" y="320.68" width="47.19" height="4.1"/><rect class="cls-6" x="143.37" y="320.68" width="3.77" height="4.1"/><rect class="cls-6" x="144.55" y="320.68" width="1.4" height="1.26"/><rect class="cls-6" x="144.55" y="323.53" width="1.4" height="1.26"/><rect class="cls-4" x="147.6" y="320.68" width="47.19" height="4.1"/><rect class="cls-5" x="147.6" y="320.68" width="47.19" height="4.1"/><rect class="cls-6" x="147.6" y="320.68" width="3.77" height="4.1"/><rect class="cls-6" x="148.78" y="320.68" width="1.4" height="1.26"/><rect class="cls-6" x="148.78" y="323.53" width="1.4" height="1.26"/><rect class="cls-4" x="129.59" y="316.58" width="47.19" height="4.1"/><rect class="cls-5" x="129.59" y="316.58" width="47.19" height="4.1"/><rect class="cls-6" x="129.59" y="316.58" width="3.77" height="4.1"/><rect class="cls-6" x="130.78" y="316.58" width="1.4" height="1.26"/><rect class="cls-6" x="130.78" y="319.42" width="1.4" height="1.26"/><rect class="cls-4" x="133.93" y="316.58" width="47.19" height="4.1"/><rect class="cls-5" x="133.93" y="316.58" width="47.19" height="4.1"/><rect class="cls-6" x="133.93" y="316.58" width="3.77" height="4.1"/><rect class="cls-6" x="135.11" y="316.58" width="1.4" height="1.26"/><rect class="cls-6" x="135.11" y="319.42" width="1.4" height="1.26"/><rect class="cls-4" x="138.27" y="316.58" width="47.19" height="4.1"/><rect class="cls-5" x="138.27" y="316.58" width="47.19" height="4.1"/><rect class="cls-6" x="138.27" y="316.58" width="3.77" height="4.1"/><rect class="cls-6" x="139.45" y="316.58" width="1.4" height="1.26"/><rect class="cls-6" x="139.45" y="319.42" width="1.4" height="1.26"/><rect class="cls-4" x="142.61" y="316.58" width="47.19" height="4.1"/><rect class="cls-5" x="142.61" y="316.58" width="47.19" height="4.1"/><rect class="cls-6" x="142.61" y="316.58" width="3.77" height="4.1"/><rect class="cls-6" x="143.79" y="316.58" width="1.4" height="1.26"/><rect class="cls-6" x="143.79" y="319.42" width="1.4" height="1.26"/><rect class="cls-4" x="146.84" y="316.58" width="47.19" height="4.1"/><rect class="cls-5" x="146.84" y="316.58" width="47.19" height="4.1"/><rect class="cls-6" x="146.84" y="316.58" width="3.77" height="4.1"/><rect class="cls-6" x="148.02" y="316.58" width="1.4" height="1.26"/><rect class="cls-6" x="148.02" y="319.42" width="1.4" height="1.26"/><rect class="cls-4" x="129.99" y="312.48" width="47.19" height="4.1"/><rect class="cls-5" x="129.99" y="312.48" width="47.19" height="4.1"/><rect class="cls-6" x="129.99" y="312.48" width="3.77" height="4.1"/><rect class="cls-6" x="131.17" y="312.47" width="1.4" height="1.26"/><rect class="cls-6" x="131.17" y="315.32" width="1.4" height="1.26"/><rect class="cls-4" x="134.33" y="312.47" width="47.19" height="4.1"/><rect class="cls-5" x="134.33" y="312.47" width="47.19" height="4.1"/><rect class="cls-6" x="134.33" y="312.47" width="3.77" height="4.1"/><rect class="cls-6" x="135.51" y="312.47" width="1.4" height="1.26"/><rect class="cls-6" x="135.51" y="315.32" width="1.4" height="1.26"/><rect class="cls-4" x="138.66" y="312.47" width="47.19" height="4.1"/><rect class="cls-5" x="138.66" y="312.47" width="47.19" height="4.1"/><rect class="cls-6" x="138.66" y="312.47" width="3.77" height="4.1"/><rect class="cls-6" x="139.85" y="312.47" width="1.4" height="1.26"/><rect class="cls-6" x="139.85" y="315.32" width="1.4" height="1.26"/><rect class="cls-4" x="143" y="312.47" width="47.19" height="4.1"/><rect class="cls-5" x="143" y="312.47" width="47.19" height="4.1"/><rect class="cls-6" x="143" y="312.47" width="3.77" height="4.1"/><rect class="cls-6" x="144.18" y="312.47" width="1.4" height="1.26"/><rect class="cls-6" x="144.18" y="315.32" width="1.4" height="1.26"/><rect class="cls-4" x="147.23" y="312.48" width="47.19" height="4.1"/><rect class="cls-5" x="147.23" y="312.48" width="47.19" height="4.1"/><rect class="cls-6" x="147.23" y="312.47" width="3.77" height="4.1"/><rect class="cls-6" x="148.42" y="312.47" width="1.4" height="1.26"/><rect class="cls-6" x="148.42" y="315.32" width="1.4" height="1.26"/><rect class="cls-11" x="150.95" y="312.16" width="43.36" height="0.32"/><rect class="cls-11" x="150.7" y="320.38" width="43.36" height="0.31"/><rect class="cls-11" x="150.95" y="328.58" width="43.36" height="0.31"/><rect class="cls-11" x="150.61" y="316.58" width="43.36" height="1.55"/><rect class="cls-11" x="150.95" y="324.81" width="43.36" height="1.55"/><rect class="cls-11" x="150.95" y="333.02" width="43.36" height="1.55"/><rect class="cls-4" x="124.99" y="337.09" width="77.67" height="2.79"/><rect class="cls-12" x="153.28" y="337.09" width="49.39" height="2.79"/><rect class="cls-7" x="124.99" y="337.09" width="77.67" height="2.79"/><polygon class="cls-13" points="194.42 312.48 194.42 312.51 191.83 312.51 190.19 315.82 189.81 316.58 189.8 316.61 189.27 316.61 188.48 318.13 188.2 318.66 129.59 318.66 129.59 316.58 129.99 316.58 129.99 312.48 129.87 312.48 129.87 308.37 194.31 308.37 194.31 312.48 194.42 312.48"/><rect class="cls-2" x="131.61" y="301.61" width="47.19" height="4.1"/><rect class="cls-10" x="131.61" y="301.61" width="3.77" height="4.1"/><rect class="cls-10" x="132.79" y="301.61" width="1.4" height="1.26"/><rect class="cls-10" x="132.79" y="304.46" width="1.4" height="1.26"/><rect class="cls-2" x="135.95" y="301.61" width="47.19" height="4.1"/><rect class="cls-10" x="135.95" y="301.61" width="3.77" height="4.1"/><rect class="cls-10" x="137.14" y="301.61" width="1.4" height="1.26"/><rect class="cls-10" x="137.14" y="304.46" width="1.4" height="1.26"/><rect class="cls-2" x="140.29" y="301.61" width="47.19" height="4.1"/><rect class="cls-10" x="140.29" y="301.61" width="3.77" height="4.1"/><rect class="cls-10" x="141.48" y="301.61" width="1.4" height="1.26"/><rect class="cls-10" x="141.48" y="304.46" width="1.4" height="1.26"/><rect class="cls-2" x="144.64" y="301.61" width="47.19" height="4.1"/><rect class="cls-10" x="144.64" y="301.61" width="3.77" height="4.1"/><rect class="cls-10" x="145.82" y="301.61" width="1.4" height="1.26"/><rect class="cls-10" x="145.82" y="304.46" width="1.4" height="1.26"/><rect class="cls-2" x="148.98" y="301.61" width="47.19" height="4.1"/><rect class="cls-10" x="148.98" y="301.61" width="3.77" height="4.1"/><rect class="cls-10" x="150.16" y="301.61" width="1.4" height="1.26"/><rect class="cls-10" x="150.16" y="304.46" width="1.4" height="1.26"/><rect class="cls-2" x="132.32" y="297.51" width="47.19" height="4.1"/><rect class="cls-10" x="132.32" y="297.51" width="3.77" height="4.1"/><rect class="cls-10" x="133.51" y="297.51" width="1.4" height="1.26"/><rect class="cls-10" x="133.51" y="300.36" width="1.4" height="1.26"/><rect class="cls-2" x="136.66" y="297.51" width="47.19" height="4.1"/><rect class="cls-10" x="136.66" y="297.51" width="3.77" height="4.1"/><rect class="cls-10" x="137.85" y="297.51" width="1.4" height="1.26"/><rect class="cls-10" x="137.85" y="300.36" width="1.4" height="1.26"/><rect class="cls-2" x="141.01" y="297.51" width="47.19" height="4.1"/><rect class="cls-10" x="141.01" y="297.51" width="3.77" height="4.1"/><rect class="cls-10" x="142.19" y="297.51" width="1.4" height="1.26"/><rect class="cls-10" x="142.19" y="300.36" width="1.4" height="1.26"/><rect class="cls-2" x="145.35" y="297.51" width="47.19" height="4.1"/><rect class="cls-10" x="145.35" y="297.51" width="3.77" height="4.1"/><rect class="cls-10" x="146.53" y="297.51" width="1.4" height="1.26"/><rect class="cls-10" x="146.53" y="300.36" width="1.4" height="1.26"/><rect class="cls-2" x="149.69" y="297.51" width="47.19" height="4.1"/><rect class="cls-10" x="149.69" y="297.51" width="3.77" height="4.1"/><rect class="cls-10" x="150.88" y="297.51" width="1.4" height="1.26"/><rect class="cls-10" x="150.88" y="300.36" width="1.4" height="1.26"/><rect class="cls-2" x="130.85" y="293.41" width="47.19" height="4.1"/><rect class="cls-10" x="130.85" y="293.41" width="3.77" height="4.1"/><rect class="cls-10" x="132.03" y="293.41" width="1.4" height="1.26"/><rect class="cls-10" x="132.03" y="296.25" width="1.4" height="1.26"/><rect class="cls-2" x="135.19" y="293.41" width="47.19" height="4.1"/><rect class="cls-10" x="135.19" y="293.41" width="3.77" height="4.1"/><rect class="cls-10" x="136.37" y="293.41" width="1.4" height="1.26"/><rect class="cls-10" x="136.37" y="296.25" width="1.4" height="1.26"/><rect class="cls-2" x="139.53" y="293.41" width="47.19" height="4.1"/><rect class="cls-10" x="139.53" y="293.41" width="3.77" height="4.1"/><rect class="cls-10" x="140.72" y="293.41" width="1.4" height="1.26"/><rect class="cls-10" x="140.72" y="296.25" width="1.4" height="1.26"/><rect class="cls-2" x="143.87" y="293.41" width="47.19" height="4.1"/><rect class="cls-10" x="143.87" y="293.41" width="3.77" height="4.1"/><rect class="cls-10" x="145.06" y="293.41" width="1.4" height="1.26"/><rect class="cls-10" x="145.06" y="296.25" width="1.4" height="1.26"/><rect class="cls-2" x="148.22" y="293.4" width="47.19" height="4.11"/><rect class="cls-10" x="148.22" y="293.41" width="3.77" height="4.1"/><rect class="cls-10" x="149.4" y="293.41" width="1.4" height="1.26"/><rect class="cls-10" x="149.4" y="296.25" width="1.4" height="1.26"/><rect class="cls-2" x="132.03" y="289.3" width="47.19" height="4.1"/><rect class="cls-10" x="132.03" y="289.3" width="3.77" height="4.1"/><rect class="cls-10" x="133.21" y="289.3" width="1.4" height="1.26"/><rect class="cls-10" x="133.21" y="292.15" width="1.4" height="1.26"/><rect class="cls-2" x="136.37" y="289.3" width="47.19" height="4.1"/><rect class="cls-10" x="136.37" y="289.3" width="3.77" height="4.1"/><rect class="cls-10" x="137.56" y="289.3" width="1.4" height="1.26"/><rect class="cls-10" x="137.56" y="292.15" width="1.4" height="1.26"/><rect class="cls-2" x="140.72" y="289.3" width="47.19" height="4.1"/><rect class="cls-10" x="140.72" y="289.3" width="3.77" height="4.1"/><rect class="cls-10" x="141.9" y="289.3" width="1.4" height="1.26"/><rect class="cls-10" x="141.9" y="292.15" width="1.4" height="1.26"/><rect class="cls-2" x="145.06" y="289.3" width="47.19" height="4.1"/><rect class="cls-10" x="145.06" y="289.3" width="3.77" height="4.1"/><rect class="cls-10" x="146.24" y="289.3" width="1.4" height="1.26"/><rect class="cls-10" x="146.24" y="292.15" width="1.4" height="1.26"/><rect class="cls-2" x="149.4" y="289.3" width="47.19" height="4.1"/><rect class="cls-10" x="149.4" y="289.3" width="3.77" height="4.1"/><rect class="cls-10" x="150.58" y="289.3" width="1.4" height="1.26"/><rect class="cls-10" x="150.58" y="292.15" width="1.4" height="1.26"/><rect class="cls-2" x="131.61" y="285.2" width="47.19" height="4.1"/><rect class="cls-10" x="131.61" y="285.2" width="3.77" height="4.1"/><rect class="cls-10" x="132.79" y="285.2" width="1.4" height="1.26"/><rect class="cls-10" x="132.79" y="288.05" width="1.4" height="1.26"/><rect class="cls-2" x="135.95" y="285.2" width="47.19" height="4.1"/><rect class="cls-10" x="135.95" y="285.2" width="3.77" height="4.1"/><rect class="cls-10" x="137.14" y="285.2" width="1.4" height="1.26"/><rect class="cls-10" x="137.14" y="288.05" width="1.4" height="1.26"/><rect class="cls-2" x="140.29" y="285.2" width="47.19" height="4.1"/><rect class="cls-10" x="140.29" y="285.2" width="3.77" height="4.1"/><rect class="cls-10" x="141.48" y="285.2" width="1.4" height="1.26"/><rect class="cls-10" x="141.48" y="288.05" width="1.4" height="1.26"/><rect class="cls-2" x="144.64" y="285.2" width="47.19" height="4.1"/><rect class="cls-10" x="144.64" y="285.2" width="3.77" height="4.1"/><rect class="cls-10" x="145.82" y="285.2" width="1.4" height="1.26"/><rect class="cls-10" x="145.82" y="288.05" width="1.4" height="1.26"/><rect class="cls-2" x="148.98" y="285.2" width="47.19" height="4.1"/><rect class="cls-10" x="148.98" y="285.2" width="3.77" height="4.1"/><rect class="cls-10" x="150.16" y="285.2" width="1.4" height="1.26"/><rect class="cls-10" x="150.16" y="288.05" width="1.4" height="1.26"/><rect class="cls-2" x="130.85" y="281.1" width="47.19" height="4.1"/><rect class="cls-10" x="130.85" y="281.1" width="3.77" height="4.1"/><rect class="cls-10" x="132.03" y="281.1" width="1.4" height="1.26"/><rect class="cls-10" x="132.03" y="283.95" width="1.4" height="1.26"/><rect class="cls-2" x="135.19" y="281.1" width="47.19" height="4.1"/><rect class="cls-10" x="135.19" y="281.1" width="3.77" height="4.1"/><rect class="cls-10" x="136.37" y="281.1" width="1.4" height="1.26"/><rect class="cls-10" x="136.37" y="283.95" width="1.4" height="1.26"/><rect class="cls-2" x="139.53" y="281.1" width="47.19" height="4.1"/><rect class="cls-10" x="139.53" y="281.1" width="3.77" height="4.1"/><rect class="cls-10" x="140.72" y="281.1" width="1.4" height="1.26"/><rect class="cls-10" x="140.72" y="283.95" width="1.4" height="1.26"/><rect class="cls-2" x="143.87" y="281.1" width="47.19" height="4.1"/><rect class="cls-10" x="143.87" y="281.1" width="3.77" height="4.1"/><rect class="cls-10" x="145.06" y="281.1" width="1.4" height="1.26"/><rect class="cls-10" x="145.06" y="283.95" width="1.4" height="1.26"/><rect class="cls-2" x="148.22" y="281.1" width="47.19" height="4.1"/><rect class="cls-10" x="148.22" y="281.1" width="3.77" height="4.1"/><rect class="cls-10" x="149.4" y="281.1" width="1.4" height="1.26"/><rect class="cls-10" x="149.4" y="283.95" width="1.4" height="1.26"/><rect class="cls-2" x="131.61" y="276.99" width="47.19" height="4.11"/><rect class="cls-10" x="131.61" y="277" width="3.77" height="4.1"/><rect class="cls-10" x="132.79" y="277" width="1.4" height="1.26"/><rect class="cls-10" x="132.79" y="279.84" width="1.4" height="1.26"/><rect class="cls-2" x="135.95" y="276.99" width="47.19" height="4.11"/><rect class="cls-10" x="135.95" y="277" width="3.77" height="4.1"/><rect class="cls-10" x="137.14" y="277" width="1.4" height="1.26"/><rect class="cls-10" x="137.14" y="279.84" width="1.4" height="1.26"/><rect class="cls-2" x="140.29" y="276.99" width="47.2" height="4.11"/><rect class="cls-10" x="140.29" y="277" width="3.77" height="4.1"/><rect class="cls-10" x="141.48" y="277" width="1.4" height="1.26"/><rect class="cls-10" x="141.48" y="279.84" width="1.4" height="1.26"/><rect class="cls-2" x="144.64" y="276.99" width="47.19" height="4.11"/><rect class="cls-10" x="144.64" y="277" width="3.77" height="4.1"/><rect class="cls-10" x="145.82" y="277" width="1.4" height="1.26"/><rect class="cls-10" x="145.82" y="279.84" width="1.4" height="1.26"/><rect class="cls-2" x="148.98" y="276.99" width="47.19" height="4.11"/><rect class="cls-10" x="148.98" y="277" width="3.77" height="4.1"/><rect class="cls-10" x="150.16" y="277" width="1.4" height="1.26"/><rect class="cls-10" x="150.16" y="279.84" width="1.4" height="1.26"/><rect class="cls-11" x="151.99" y="281.1" width="43.42" height="1.25"/><rect class="cls-11" x="151.99" y="284.85" width="43.42" height="0.35"/><rect class="cls-11" x="152.75" y="288.95" width="43.42" height="0.35"/><rect class="cls-11" x="151.99" y="297.15" width="43.42" height="0.36"/><rect class="cls-11" x="151.99" y="293.4" width="43.42" height="1.13"/><rect class="cls-11" x="152.75" y="301.67" width="43.42" height="1.13"/><rect class="cls-4" x="125.03" y="305.71" width="77.67" height="2.79"/><rect class="cls-12" x="125.03" y="305.71" width="77.67" height="2.79"/><rect class="cls-12" x="153.32" y="305.71" width="49.38" height="2.79"/></g><g id="Crane"><path class="cls-2" d="M345.25,80.55h-56V94.82h82V80.55Zm-45.36,12h-7.73V82.84h7.73Zm10.62,0h-7.73V82.84h7.73Zm10.61,0H313.4V82.84h7.72Zm10.62,0H324V82.84h7.73Zm10.62,0h-7.73V82.84h7.73Zm7.82,0h-3.59V82.84h3.59Zm4.93,0h-3.59V82.84h3.59Zm4.93,0h-3.59V82.84H360Zm4.93,0h-3.59V82.84H365Zm4.93,0h-3.59V82.84h3.59Z"/><path class="cls-14" d="M345.25,80.55h-56V94.82h82V80.55Zm-45.36,12h-7.73V82.84h7.73Zm10.62,0h-7.73V82.84h7.73Zm10.61,0H313.4V82.84h7.72Zm10.62,0H324V82.84h7.73Zm10.62,0h-7.73V82.84h7.73Zm7.82,0h-3.59V82.84h3.59Zm4.93,0h-3.59V82.84h3.59Zm4.93,0h-3.59V82.84H360Zm4.93,0h-3.59V82.84H365Zm4.93,0h-3.59V82.84h3.59Z"/><rect class="cls-4" x="320.61" y="95.49" width="19.29" height="9.76"/><path class="cls-2" d="M343.29,218.5H317V331.39h26.81V218.5Zm-23.44,2.73h12.56l-12.56,13.39Zm0,20.59,12.56,13.4H319.85Zm0,16.13H332.4l-12.55,13.39Zm0,20.59,12.56,13.39H319.85Zm0,16.13H332.4l-12.55,13.39Zm0,34V315.26l12.56,13.39Zm14.32-2.23L321.61,313h12.56Zm0-16.13H321.61l12.56-13.39Zm0-20.59-12.56-13.39h12.56Zm0-16.13H321.61l12.56-13.39Zm0-20.59-12.56-13.39h12.56Zm0-16.12H321.61l12.56-13.4Zm3.86-13.4,4.18,13.4H338Zm0,16.13h4.18L338,253Zm0,20.59,4.18,13.39H338Zm0,16.13h4.18L338,289.7Zm0,20.59,4.18,13.39H338ZM338,313h4.18L338,326.42Zm4.77,15.62h-4.18l4.18-13.39Zm0-20.59-4.18-13.39h4.18Zm0-16.13h-4.18l4.18-13.39Zm0-20.59L338.62,258h4.18Zm0-16.12h-4.18l4.18-13.4Zm0-20.6-4.18-13.39h4.18Z"/><path class="cls-14" d="M343.29,218.5H317V331.39h26.81V218.5Zm-23.44,2.73h12.56l-12.56,13.39Zm0,20.59,12.56,13.4H319.85Zm0,16.13H332.4l-12.55,13.39Zm0,20.59,12.56,13.39H319.85Zm0,16.13H332.4l-12.55,13.39Zm0,34V315.26l12.56,13.39Zm14.32-2.23L321.61,313h12.56Zm0-16.13H321.61l12.56-13.39Zm0-20.59-12.56-13.39h12.56Zm0-16.13H321.61l12.56-13.39Zm0-20.59-12.56-13.39h12.56Zm0-16.12H321.61l12.56-13.4Zm3.86-13.4,4.18,13.4H338Zm0,16.13h4.18L338,253Zm0,20.59,4.18,13.39H338Zm0,16.13h4.18L338,289.7Zm0,20.59,4.18,13.39H338ZM338,313h4.18L338,326.42Zm4.77,15.62h-4.18l4.18-13.39Zm0-20.59-4.18-13.39h4.18Zm0-16.13h-4.18l4.18-13.39Zm0-20.59L338.62,258h4.18Zm0-16.12h-4.18l4.18-13.4Zm0-20.6-4.18-13.39h4.18Z"/><path class="cls-2" d="M342.32,218.5H323.66V331.39h20.11V218.5Zm-15.77,41.68,12.56,13.39H326.55Zm0,16.13h12.56L326.55,289.7Zm0,20.59,12.56,13.39H326.55Zm1.77-2.23h12.56v13.39Zm12.56-2.74H328.32l12.56-13.39Zm-12.56-34h12.56v13.39Zm12.56-2.73H328.32l12.56-13.4ZM326.55,253V239.59h12.56Zm0-16.12v-13.4l12.56,13.4Zm0,76.17h12.56l-12.56,13.39Zm14.33-91.8v13.39l-12.56-13.39ZM328.32,328.65l12.56-13.39v13.39Z"/><path class="cls-2" d="M317.44,218.5h6.22V331.39H317V218.5Zm5.26,41.68-4.19,13.39h4.19Zm0,16.13h-4.19l4.19,13.39Zm0,20.59-4.19,13.39h4.19Zm-.59-2.23h-4.19v13.39Zm-4.19-2.74h4.19l-4.19-13.39Zm4.19-34h-4.19v13.39Zm-4.19-2.73h4.19l-4.19-13.4ZM322.7,253V239.59h-4.19Zm0-16.12v-13.4l-4.19,13.4Zm0,76.17h-4.19l4.19,13.39Zm-4.78-91.8v13.39l4.19-13.39Zm4.19,107.42-4.19-13.39v13.39Z"/><path class="cls-12" d="M342.32,218.5H323.66V331.39h20.11V218.5Zm-15.77,41.68,12.56,13.39H326.55Zm0,16.13h12.56L326.55,289.7Zm0,20.59,12.56,13.39H326.55Zm1.77-2.23h12.56v13.39Zm12.56-2.74H328.32l12.56-13.39Zm-12.56-34h12.56v13.39Zm12.56-2.73H328.32l12.56-13.4ZM326.55,253V239.59h12.56Zm0-16.12v-13.4l12.56,13.4Zm0,76.17h12.56l-12.56,13.39Zm14.33-91.8v13.39l-12.56-13.39ZM328.32,328.65l12.56-13.39v13.39Z"/><path class="cls-2" d="M343.18,108H316.85V220.92h26.81V108Zm-23.44,2.74H332.3l-12.56,13.39Zm0,20.59,12.56,13.39H319.74Zm0,16.12H332.3l-12.56,13.4Zm0,20.59,12.56,13.4H319.74Zm0,16.13H332.3l-12.56,13.39Zm0,34v-13.4l12.56,13.4ZM334.07,216l-12.56-13.39h12.56Zm0-16.12H321.51l12.56-13.4Zm0-20.59-12.56-13.4h12.56Zm0-16.13H321.51l12.56-13.39Zm0-20.59-12.56-13.4h12.56Zm0-16.13H321.51L334.07,113ZM337.92,113l4.19,13.39h-4.19Zm0,16.12h4.19l-4.19,13.4Zm0,20.6,4.19,13.39h-4.19Zm0,16.12h4.19l-4.19,13.4Zm0,20.59,4.19,13.4h-4.19Zm0,16.13h4.19L337.92,216Zm4.78,15.63h-4.19l4.19-13.4Zm0-20.6-4.19-13.39h4.19Zm0-16.12h-4.19l4.19-13.4Zm0-20.59-4.19-13.4h4.19Zm0-16.13h-4.19l4.19-13.39Zm0-20.59-4.19-13.39h4.19Z"/><path class="cls-14" d="M343.18,108H316.85V220.92h26.81V108Zm-23.44,2.74H332.3l-12.56,13.39Zm0,20.59,12.56,13.39H319.74Zm0,16.12H332.3l-12.56,13.4Zm0,20.59,12.56,13.4H319.74Zm0,16.13H332.3l-12.56,13.39Zm0,34v-13.4l12.56,13.4ZM334.07,216l-12.56-13.39h12.56Zm0-16.12H321.51l12.56-13.4Zm0-20.59-12.56-13.4h12.56Zm0-16.13H321.51l12.56-13.39Zm0-20.59-12.56-13.4h12.56Zm0-16.13H321.51L334.07,113ZM337.92,113l4.19,13.39h-4.19Zm0,16.12h4.19l-4.19,13.4Zm0,20.6,4.19,13.39h-4.19Zm0,16.12h4.19l-4.19,13.4Zm0,20.59,4.19,13.4h-4.19Zm0,16.13h4.19L337.92,216Zm4.78,15.63h-4.19l4.19-13.4Zm0-20.6-4.19-13.39h4.19Zm0-16.12h-4.19l4.19-13.4Zm0-20.59-4.19-13.4h4.19Zm0-16.13h-4.19l4.19-13.39Zm0-20.59-4.19-13.39h4.19Z"/><path class="cls-2" d="M342.22,108H323.56V220.92h20.1V108Zm-15.77,41.69L339,163.11H326.45Zm0,16.12H339l-12.56,13.4Zm0,20.59L339,199.83H326.45Zm1.77-2.23h12.55v13.39Zm12.55-2.73H328.22l12.55-13.4Zm-12.55-34h12.55v13.4Zm12.55-2.73H328.22l12.55-13.39Zm-14.32-2.23v-13.4H339Zm0-16.13V113L339,126.39Zm0,76.17H339L326.45,216Zm14.32-91.79v13.39l-12.55-13.39ZM328.22,218.19l12.55-13.4v13.4Z"/><path class="cls-2" d="M317.33,108h6.23V220.92h-6.71V108Zm5.27,41.69-4.19,13.39h4.19Zm0,16.12h-4.19l4.19,13.4Zm0,20.59-4.19,13.4h4.19ZM322,184.2h-4.19v13.39Zm-4.19-2.73H322l-4.19-13.4Zm4.19-34h-4.19v13.4Zm-4.19-2.73H322l-4.19-13.39Zm4.78-2.23v-13.4h-4.19Zm0-16.13V113l-4.19,13.39Zm0,76.17h-4.19L322.6,216Zm-4.78-91.79v13.39L322,110.77ZM322,218.19l-4.19-13.4v13.4Z"/><path class="cls-12" d="M342.22,108H323.56V220.92h20.1V108Zm-15.77,41.69L339,163.11H326.45Zm0,16.12H339l-12.56,13.4Zm0,20.59L339,199.83H326.45Zm1.77-2.23h12.55v13.39Zm12.55-2.73H328.22l12.55-13.4Zm-12.55-34h12.55v13.4Zm12.55-2.73H328.22l12.55-13.39Zm-14.32-2.23v-13.4H339Zm0-16.13V113L339,126.39Zm0,76.17H339L326.45,216Zm14.32-91.79v13.39l-12.55-13.39ZM328.22,218.19l12.55-13.4v13.4Z"/><rect class="cls-4" x="316.85" y="102.47" width="26.81" height="5.56"/><rect class="cls-12" x="323.56" y="102.47" width="20.1" height="5.56"/><path class="cls-2" d="M327.64,11.35l-10.79,44V93.45h26.81V55.37l-10.85-44ZM329,16.61l1.14,8.71H326.9Zm-2.72,11.44h2.65l-3.83,5Zm4.51,2.23,1,7.49H325ZM332.1,40.5l1.33,10.12L325.1,40.5Zm-9.22,1.76L332.56,54H320.1Zm-3.14,14.48H332.3L319.74,70.13Zm0,34V77.33L332.3,90.72Zm14.33-2.23L321.51,75.1h12.56Zm0-16.13H321.51L334.07,59Zm8,2.74-4.19,13.39V75.1Zm-4.19-2.74V59l4.19,13.39Zm4.78,18.36h-4.19l4.19-13.39Zm0-20.59-4.19-13.39h4.19ZM342.34,54h-4.15l1.19-11.67Zm-5-3.36L336,40.59h2.34Zm-1.66-12.78-1-7.44,3.22,7.44Zm1.4-4.72-2.13-4.94h.88Zm-3-7.66-1.12-8.66,2.19,8.66Z"/><path class="cls-14" d="M327.64,11.35l-10.79,44V93.45h26.81V55.37l-10.85-44ZM329,16.61l1.14,8.71H326.9Zm-2.72,11.44h2.65l-3.83,5Zm4.51,2.23,1,7.49H325ZM332.1,40.5l1.33,10.12L325.1,40.5Zm-9.22,1.76L332.56,54H320.1Zm-3.14,14.48H332.3L319.74,70.13Zm0,34V77.33L332.3,90.72Zm14.33-2.23L321.51,75.1h12.56Zm0-16.13H321.51L334.07,59Zm8,2.74-4.19,13.39V75.1Zm-4.19-2.74V59l4.19,13.39Zm4.78,18.36h-4.19l4.19-13.39Zm0-20.59-4.19-13.39h4.19ZM342.34,54h-4.15l1.19-11.67Zm-5-3.36L336,40.59h2.34Zm-1.66-12.78-1-7.44,3.22,7.44Zm1.4-4.72-2.13-4.94h.88Zm-3-7.66-1.12-8.66,2.19,8.66Z"/><path class="cls-2" d="M327.7,11.35l-10.85,44V93.45h26.81V55.37l-10.79-44Zm3.85,5.26,2.07,8.71h-3.21Zm-3.95.22-1.13,8.66H325.4Zm.81,23.67h7l-8.33,10.12ZM339,72.36H326.45V59Zm-14.3-44.15h.89l-2.14,4.94Zm-3.58,14.13L322.33,54h-4.16Zm-3.31,14.4H322l-4.19,13.39Zm0,34V77.33L322,90.72Zm4.78-2.23L318.41,75.1h4.19Zm0-16.13h-4.19L322.6,59Zm.61-21.71-1-10.06h2.33Zm1.66-12.78h-2.26l3.22-7.44Zm1.58,37.23H339L326.45,88.49Zm14.33,15.62H328.22l12.56-13.39Zm0-20.59L328.22,56.74h12.56ZM340.41,54H328l9.67-11.74ZM328.77,37.77l1-7.49,5.78,7.49ZM335.44,33l-3.83-5h2.65Z"/><path class="cls-12" d="M329,11.35l-5.42,44V93.45h20.1V55.37l-10.79-44Zm2.57,5.26,2.07,8.71h-3.21ZM328.41,40.5h7l-8.33,10.12Zm-2,18.47L339,72.36H326.45Zm0,16.13H339L326.45,88.49Zm14.33,15.62H328.22l12.56-13.39Zm0-20.59L328.22,56.74h12.56ZM340.41,54H328l9.67-11.74ZM328.77,37.77l1-7.49,5.78,7.49ZM335.44,33l-3.83-5h2.65Z"/><rect class="cls-4" x="316.85" y="93.45" width="26.81" height="2.75"/><path class="cls-2" d="M315.27,80.55V94.82h56V80.55Zm24.12,2.29h7.73v9.69h-7.73Zm-2.89,9.69h-7.73V82.84h7.73ZM350,82.84h7.73v9.69H350Zm-31.85,0h7.73v9.69h-7.73Zm50.19,9.69h-7.73V82.84h7.73Z"/><path class="cls-2" d="M289.28,80.55V94.82h26V80.55Zm11.2,2.29h3.59v9.69h-3.59Zm-1.34,9.69h-3.59V82.84h3.59Zm6.27-9.69H309v9.69h-3.59Zm-14.79,0h3.59v9.69h-3.59Zm23.31,9.69h-3.59V82.84h3.59Z"/><path class="cls-6" d="M289.28,80.55V94.82h26V80.55Zm11.2,2.29h3.59v9.69h-3.59Zm-1.34,9.69h-3.59V82.84h3.59Zm6.27-9.69H309v9.69h-3.59Zm-14.79,0h3.59v9.69h-3.59Zm23.31,9.69h-3.59V82.84h3.59Z"/><polygon class="cls-4" points="371 331.39 289.73 331.39 280.96 339.3 379.77 339.3 371 331.39"/><polygon class="cls-12" points="371 331.39 320.93 331.39 318.89 339.3 379.77 339.3 371 331.39"/><polygon class="cls-15" points="109.38 158.47 117.92 216.18 71.96 216.18 109.38 158.47"/><path class="cls-2" d="M339,6.28v5.25a1.13,1.13,0,0,1-1.13,1.13h-18a1.14,1.14,0,0,1-1.13-1.13V6.28a1.13,1.13,0,0,1,1.13-1.12h18A1.13,1.13,0,0,1,339,6.28Z"/><path class="cls-12" d="M339,6.28v5.25a1.13,1.13,0,0,1-1.13,1.13h-17a1.14,1.14,0,0,1-1.14-1.13V6.28a1.14,1.14,0,0,1,1.14-1.12h17A1.13,1.13,0,0,1,339,6.28Z"/><path class="cls-4" d="M324.72,8.91a2.25,2.25,0,1,1-4.38,0,2.25,2.25,0,1,1,4.38,0Z"/><line class="cls-16" x1="101.65" y1="73.42" x2="107.74" y2="134.24"/><line class="cls-16" x1="117.36" y1="73.42" x2="111.28" y2="134.24"/><path class="cls-16" d="M109.51,148.5v5.65s3.65,4.57,0,4.57-.83-3.58-.83-3.58"/><path class="cls-4" d="M106.17,132.5h6.68a.88.88,0,0,1,.88.88v4.55a0,0,0,0,1,0,0h-8.44a0,0,0,0,1,0,0v-4.55A.88.88,0,0,1,106.17,132.5Z"/><path class="cls-4" d="M116.45,137.75v1.8a1.65,1.65,0,0,1,0,.21l-1.68,11.11a1.45,1.45,0,0,1-1.44,1.24H105.7a1.45,1.45,0,0,1-1.43-1.24l-1.69-11.11a1.65,1.65,0,0,1,0-.21v-1.8a1.47,1.47,0,0,1,1.46-1.46h11A1.46,1.46,0,0,1,116.45,137.75Z"/><path class="cls-12" d="M116.45,137.75v1.8a1.65,1.65,0,0,1,0,.21l-1.68,11.11a1.45,1.45,0,0,1-1.44,1.24h-2.79a1.45,1.45,0,0,1-1.44-1.24l-1.69-11.11a1.65,1.65,0,0,1,0-.21v-1.8a1.47,1.47,0,0,1,1.47-1.46H115A1.46,1.46,0,0,1,116.45,137.75Z"/><line class="cls-17" x1="125.73" y1="74.88" x2="318.16" y2="73.42"/><path class="cls-4" d="M102.82,75.32H98.33l.37,1.49a.43.43,0,0,0,.42.33h5.8a.43.43,0,0,0,.42-.33l.37-1.49Z"/><path class="cls-12" d="M104.92,77.14H102a.45.45,0,0,1-.43-.33l-.36-1.49h4.49l-.37,1.49A.43.43,0,0,1,104.92,77.14Z"/><path class="cls-4" d="M118.23,75.32h-4.5l.37,1.49a.44.44,0,0,0,.42.33h5.81a.44.44,0,0,0,.42-.33l.37-1.49Z"/><path class="cls-12" d="M120.33,77.14h-2.92a.44.44,0,0,1-.42-.33l-.37-1.49h4.5l-.37,1.49A.44.44,0,0,1,120.33,77.14Z"/><rect class="cls-4" x="80.9" y="72.25" width="34.47" height="3.49" rx="0.6"/><rect class="cls-12" x="81.86" y="72.25" width="33.51" height="3.49" rx="0.6"/><path class="cls-4" d="M115.38,74v1.14a.6.6,0,0,1-.6.6H81.5a.6.6,0,0,1-.6-.6V74Z"/><line class="cls-16" x1="323.34" y1="6.92" x2="229.57" y2="55.69"/><line class="cls-18" x1="338.51" y1="6.92" x2="406.72" y2="72.25"/><path class="cls-18" d="M347.52,72.25V64.81a2.7,2.7,0,0,1,2.7-2.71h72.35a2.7,2.7,0,0,1,2.7,2.71v7.44"/><line class="cls-18" x1="357.24" y1="62.1" x2="357.24" y2="72.25"/><line class="cls-18" x1="366.96" y1="62.1" x2="366.96" y2="72.25"/><line class="cls-18" x1="376.68" y1="62.1" x2="376.68" y2="72.25"/><line class="cls-18" x1="386.4" y1="62.1" x2="386.4" y2="72.25"/><line class="cls-18" x1="396.12" y1="62.1" x2="396.12" y2="72.25"/><line class="cls-18" x1="405.84" y1="62.1" x2="405.84" y2="72.25"/><line class="cls-18" x1="415.56" y1="62.1" x2="415.56" y2="72.25"/><line class="cls-18" x1="347.52" y1="67.72" x2="425.27" y2="67.72"/><path class="cls-4" d="M435.44,60.55a5.47,5.47,0,0,0-5.23-5.68h-3.55a5.37,5.37,0,0,0-5.16,4.82H404.61a1,1,0,0,0-1,1.06V72.4H392V84a1.18,1.18,0,0,0,1.18,1.18h4.87V97.59a1.68,1.68,0,0,0,1.68,1.68h27.6A1.68,1.68,0,0,0,429,97.59V85.13h5.19A1.18,1.18,0,0,0,435.39,84V72.43h.05Z"/><path class="cls-3" d="M435.44,60.55a5.47,5.47,0,0,0-5.23-5.68h-3.55a5.37,5.37,0,0,0-5.16,4.82H404.61a1,1,0,0,0-1,1.06V72.4H392V84a1.18,1.18,0,0,0,1.18,1.18h4.87V97.59a1.68,1.68,0,0,0,1.68,1.68h27.6A1.68,1.68,0,0,0,429,97.59V85.13h5.19A1.18,1.18,0,0,0,435.39,84V72.43h.05Z"/><path class="cls-12" d="M435.44,60.55a5.47,5.47,0,0,0-5.23-5.68h0A5.47,5.47,0,0,0,425,60.55V72.4h-.35V60.75a1,1,0,0,0-1-1.06H408.89a1,1,0,0,0-1,1.06V72.4h-3.65V97.59a1.68,1.68,0,0,0,1.68,1.68h21.4A1.68,1.68,0,0,0,429,97.59V72.43h1.09V84a1.18,1.18,0,0,0,1.18,1.18h2.92A1.18,1.18,0,0,0,435.39,84V72.43h.05Z"/><path class="cls-12" d="M397.29,84a1.17,1.17,0,0,0,1.17,1.18h2.92A1.18,1.18,0,0,0,402.56,84V72.4h-5.27Z"/><path class="cls-4" d="M438.27,72.25h-1V64.81a2.23,2.23,0,0,0-2.22-2.23H362.74a2.23,2.23,0,0,0-2.22,2.23v7.44h-1V64.81a3.18,3.18,0,0,1,3.18-3.19h72.35a3.19,3.19,0,0,1,3.18,3.19Z"/><rect class="cls-4" x="369.27" y="62.1" width="0.96" height="10.15"/><rect class="cls-4" x="378.99" y="62.1" width="0.96" height="10.15"/><rect class="cls-4" x="388.71" y="62.1" width="0.96" height="10.15"/><rect class="cls-4" x="398.43" y="62.1" width="0.96" height="10.15"/><rect class="cls-4" x="408.15" y="62.1" width="0.96" height="10.15"/><rect class="cls-4" x="417.87" y="62.1" width="0.96" height="10.15"/><rect class="cls-4" x="427.59" y="62.1" width="0.96" height="10.15"/><rect class="cls-4" x="360.04" y="67.23" width="77.75" height="0.96"/><g class="cls-19"><path class="cls-20" d="M438.27,72.25h-1V64.81a2.23,2.23,0,0,0-2.22-2.23H362.74a2.23,2.23,0,0,0-2.22,2.23v7.44h-1V64.81a3.18,3.18,0,0,1,3.18-3.19h72.35a3.19,3.19,0,0,1,3.18,3.19Z"/><rect class="cls-20" x="369.27" y="62.1" width="0.96" height="10.15"/><rect class="cls-20" x="378.99" y="62.1" width="0.96" height="10.15"/><rect class="cls-20" x="388.71" y="62.1" width="0.96" height="10.15"/><rect class="cls-20" x="398.43" y="62.1" width="0.96" height="10.15"/><rect class="cls-20" x="408.15" y="62.1" width="0.96" height="10.15"/><rect class="cls-20" x="417.87" y="62.1" width="0.96" height="10.15"/><rect class="cls-20" x="427.59" y="62.1" width="0.96" height="10.15"/><rect class="cls-20" x="360.04" y="67.23" width="77.75" height="0.96"/></g><rect class="cls-2" x="346.64" y="70.88" width="1.76" height="2.95" rx="0.19"/><rect class="cls-2" x="356.36" y="70.88" width="1.76" height="2.95" rx="0.19"/><rect class="cls-2" x="366.08" y="70.88" width="1.76" height="2.95" rx="0.19"/><rect class="cls-2" x="375.8" y="70.88" width="1.76" height="2.95" rx="0.19"/><rect class="cls-2" x="385.52" y="70.88" width="1.76" height="2.95" rx="0.19"/><rect class="cls-2" x="395.24" y="70.88" width="1.76" height="2.95" rx="0.19"/><rect class="cls-2" x="404.95" y="70.88" width="1.76" height="2.95" rx="0.19"/><rect class="cls-2" x="414.67" y="70.88" width="1.76" height="2.95" rx="0.19"/><rect class="cls-2" x="424.39" y="70.88" width="1.76" height="2.95" rx="0.19"/><rect class="cls-2" x="309" y="71.3" width="130.02" height="2.11"/><rect class="cls-12" x="309" y="71.3" width="130.02" height="2.11"/><rect class="cls-2" x="359.16" y="70.88" width="1.76" height="2.95" rx="0.19"/><rect class="cls-2" x="368.88" y="70.88" width="1.76" height="2.95" rx="0.19"/><rect class="cls-2" x="378.59" y="70.88" width="1.76" height="2.95" rx="0.19"/><rect class="cls-2" x="388.31" y="70.88" width="1.76" height="2.95" rx="0.19"/><rect class="cls-2" x="398.03" y="70.88" width="1.76" height="2.95" rx="0.19"/><rect class="cls-2" x="407.75" y="70.88" width="1.76" height="2.95" rx="0.19"/><rect class="cls-2" x="417.47" y="70.88" width="1.76" height="2.95" rx="0.19"/><rect class="cls-2" x="427.19" y="70.88" width="1.76" height="2.95" rx="0.19"/><rect class="cls-2" x="436.91" y="70.88" width="1.76" height="2.95" rx="0.19"/><g class="cls-21"><rect class="cls-20" x="359.16" y="70.88" width="1.76" height="2.95" rx="0.19"/><rect class="cls-20" x="368.88" y="70.88" width="1.76" height="2.95" rx="0.19"/><rect class="cls-20" x="378.59" y="70.88" width="1.76" height="2.95" rx="0.19"/><rect class="cls-20" x="388.31" y="70.88" width="1.76" height="2.95" rx="0.19"/><rect class="cls-20" x="398.03" y="70.88" width="1.76" height="2.95" rx="0.19"/><rect class="cls-20" x="407.75" y="70.88" width="1.76" height="2.95" rx="0.19"/><rect class="cls-20" x="417.47" y="70.88" width="1.76" height="2.95" rx="0.19"/><rect class="cls-20" x="427.19" y="70.88" width="1.76" height="2.95" rx="0.19"/><rect class="cls-20" x="436.91" y="70.88" width="1.76" height="2.95" rx="0.19"/></g><path class="cls-2" d="M90,55.61a2.15,2.15,0,0,0-2.14-2h-1a2.15,2.15,0,0,0-2.14,2l-.33,3.71h5.91Zm-2.31.08a.76.76,0,0,1-.32.61.78.78,0,0,1-.31-.61.8.8,0,0,1,.31-.62A.78.78,0,0,1,87.73,55.69Z"/><path class="cls-12" d="M90,55.61a2.15,2.15,0,0,0-4.29,0l-.33,3.71h5Zm-2.14.87a.8.8,0,1,1,.79-.79A.8.8,0,0,1,87.9,56.48Z"/><path class="cls-2" d="M161,55.61a2.15,2.15,0,0,0-2.14-2h-1a2.16,2.16,0,0,0-2.15,2l-.33,3.71h5.91Zm-2.31.08a.78.78,0,0,1-.31.61.75.75,0,0,1-.31-.61.77.77,0,0,1,.31-.62A.8.8,0,0,1,158.65,55.69Z"/><path class="cls-12" d="M161,55.61a2.15,2.15,0,0,0-4.29,0l-.33,3.71h4.95Zm-2.14.87a.8.8,0,1,1,.79-.79A.79.79,0,0,1,158.82,56.48Z"/><path class="cls-2" d="M231.89,55.61a2.16,2.16,0,0,0-2.15-2h-1a2.16,2.16,0,0,0-2.15,2l-.33,3.71h5.92Zm-2.32.08a.38.38,0,1,1-.62,0,.39.39,0,1,1,.62,0Z"/><path class="cls-12" d="M231.89,55.61a2.15,2.15,0,0,0-4.29,0l-.33,3.71h4.95Zm-2.15.87a.8.8,0,0,1,0-1.59.8.8,0,1,1,0,1.59Z"/><path class="cls-2" d="M302.81,55.61a2.15,2.15,0,0,0-2.14-2h-1a2.15,2.15,0,0,0-2.14,2l-.33,3.71h5.91Zm-2.31.08a.76.76,0,0,1-.32.61.78.78,0,0,1-.31-.61.8.8,0,0,1,.31-.62A.78.78,0,0,1,300.5,55.69Z"/><path class="cls-12" d="M302.81,55.61a2.15,2.15,0,0,0-4.29,0l-.33,3.71h4.95Zm-2.14.87a.8.8,0,1,1,.79-.79A.8.8,0,0,1,300.67,56.48Z"/><path class="cls-2" d="M302.77,57.29H84.57L71.69,73.38l84.34,0H315.46ZM116.43,59.61h11.32L113,69.68Zm-5.71,10.07-7.93-10.07h11.33ZM85.38,59.61H96.71L82,69.68ZM98.12,61,94.72,71.1H83.4Zm2.31,0,7.93,10.07H97Zm28.73,0L125.77,71.1H114.44Zm2.31,0L139.4,71.1H128.08Zm2.37-1.42h11.32l-3.39,10.07Zm13.64,0H158.8L144.08,69.68Zm62.09,0h11.32L206.17,69.68Zm-5.71,10.07-7.93-10.07h11.33ZM178.52,59.61h11.33L175.13,69.68Zm-5.71,10.07-7.92-10.07h11.32ZM191.25,61,187.86,71.1H176.54Zm2.32,0L201.5,71.1H190.17Zm28.73,0L218.91,71.1H207.58Zm2.31,0,7.93,10.07H221.22ZM227,59.61H238.3l-3.39,10.07Zm13.63,0h11.33L237.22,69.68Zm31.05,0H283L268.27,69.68ZM266,69.68,258,59.61h11.32ZM284.39,61,281,71.1H269.68Zm2.32,0,7.93,10.07H283.31Zm2.36-1.42H300.4L297,69.68ZM80.79,66.36,79.2,71.1l-2.17,0Zm64.7,4.74L160.21,61l-3.4,10.07Zm17-10.07,7.93,10.07H159.12ZM238.63,71.1,253.35,61,250,71.1Zm17-10.07,7.93,10.07H252.26ZM298.83,71.1,302.23,61l7.93,10.07Z"/><path class="cls-14" d="M302.77,57.29H84.57L71.69,73.38l84.34,0H315.46ZM116.43,59.61h11.32L113,69.68Zm-5.71,10.07-7.93-10.07h11.33ZM85.38,59.61H96.71L82,69.68ZM98.12,61,94.72,71.1H83.4Zm2.31,0,7.93,10.07H97Zm28.73,0L125.77,71.1H114.44Zm2.31,0L139.4,71.1H128.08Zm2.37-1.42h11.32l-3.39,10.07Zm13.64,0H158.8L144.08,69.68Zm62.09,0h11.32L206.17,69.68Zm-5.71,10.07-7.93-10.07h11.33ZM178.52,59.61h11.33L175.13,69.68Zm-5.71,10.07-7.92-10.07h11.32ZM191.25,61,187.86,71.1H176.54Zm2.32,0L201.5,71.1H190.17Zm28.73,0L218.91,71.1H207.58Zm2.31,0,7.93,10.07H221.22ZM227,59.61H238.3l-3.39,10.07Zm13.63,0h11.33L237.22,69.68Zm31.05,0H283L268.27,69.68ZM266,69.68,258,59.61h11.32ZM284.39,61,281,71.1H269.68Zm2.32,0,7.93,10.07H283.31Zm2.36-1.42H300.4L297,69.68ZM80.79,66.36,79.2,71.1l-2.17,0Zm64.7,4.74L160.21,61l-3.4,10.07Zm17-10.07,7.93,10.07H159.12ZM238.63,71.1,253.35,61,250,71.1Zm17-10.07,7.93,10.07H252.26ZM298.83,71.1,302.23,61l7.93,10.07Z"/><path class="cls-2" d="M303.2,57.58h0l-.43-.29H84.57l-.23.29h0L71.69,73.38H231.13l84.33,0ZM243.58,71.07H232.26l8-10Zm-1-10,14.61,10H245.89ZM244,59.6h11.32l3.28,10.05Zm13.63,0H269l-8,10.05ZM271.35,61l3.28,10H263.31Zm2.31,0,14.61,10H276.94Zm1.42-1.42h11.33l3.28,10.05Zm13.64,0H300l-8,10.05ZM302.39,61l3.29,10H294.35Zm4.08,5.39,3.69,4.69-2.17,0ZM238,59.6l-8,10.05L226.63,59.6ZM150.44,71.07H139.12l8-10Zm-1-10,14.61,10H152.76Zm1.43-1.42h11.32l3.28,10.05Zm13.63,0h11.33l-8,10.05ZM178.21,61l3.28,10H170.17Zm2.31,0,14.61,10H183.8Zm1.42-1.42h11.33l3.28,10.05Zm13.64,0H206.9l-8,10.05ZM209.25,61l3.29,10H201.21Zm2.32,0,14.6,10H214.85Zm16,8.63L213,59.6h11.33ZM144.81,59.6l-8,10.05L133.49,59.6ZM85.07,61l3.28,10H77Zm2.31,0,14.61,10H90.66ZM88.8,59.6h11.33l3.28,10.05Zm13.64,0h11.32l-8,10.05ZM116.11,61l3.29,10H108.07Zm2.32,0,14.6,10H121.71Zm16,8.63L119.85,59.6h11.33Z"/><path class="cls-12" d="M303.2,57.58h0l-.43-.29H84.57l5.59,16.09h141l84.33,0ZM243.58,71.07H232.26l8-10Zm-1-10,14.61,10H245.89ZM244,59.6h11.32l3.28,10.05Zm13.63,0H269l-8,10.05ZM271.35,61l3.28,10H263.31Zm2.31,0,14.61,10H276.94Zm1.42-1.42h11.33l3.28,10.05Zm13.64,0H300l-8,10.05ZM302.39,61l3.29,10H294.35Zm4.08,5.39,3.69,4.69-2.17,0ZM238,59.6l-8,10.05L226.63,59.6ZM150.44,71.07H139.12l8-10Zm-1-10,14.61,10H152.76Zm1.43-1.42h11.32l3.28,10.05Zm13.63,0h11.33l-8,10.05ZM178.21,61l3.28,10H170.17Zm2.31,0,14.61,10H183.8Zm1.42-1.42h11.33l3.28,10.05Zm13.64,0H206.9l-8,10.05ZM209.25,61l3.29,10H201.21Zm2.32,0,14.6,10H214.85Zm16,8.63L213,59.6h11.33ZM144.81,59.6l-8,10.05L133.49,59.6ZM85.07,61l3.28,10H77Zm2.31,0,14.61,10H90.66ZM88.8,59.6h11.33l3.28,10.05Zm13.64,0h11.32l-8,10.05ZM116.11,61l3.29,10H108.07Zm2.32,0,14.6,10H121.71Zm16,8.63L119.85,59.6h11.33Z"/><line class="cls-22" x1="238.85" y1="50.86" x2="232.97" y2="53.92"/><path class="cls-16" d="M231.23,55.37a3.79,3.79,0,0,1-1.75.39"/><rect class="cls-4" x="94.38" y="72.25" width="34.47" height="3.49" rx="0.6"/><rect class="cls-12" x="95.34" y="72.25" width="33.51" height="3.49" rx="0.6"/><rect class="cls-2" x="77.12" y="210.68" width="47.19" height="4.1"/><rect class="cls-10" x="77.12" y="210.68" width="3.77" height="4.1"/><rect class="cls-10" x="78.31" y="210.68" width="1.4" height="1.26"/><rect class="cls-10" x="78.31" y="213.53" width="1.4" height="1.26"/><rect class="cls-2" x="81.47" y="210.68" width="47.19" height="4.1"/><rect class="cls-10" x="81.47" y="210.68" width="3.77" height="4.1"/><rect class="cls-10" x="82.65" y="210.68" width="1.4" height="1.26"/><rect class="cls-10" x="82.65" y="213.53" width="1.4" height="1.26"/><rect class="cls-2" x="85.81" y="210.68" width="47.19" height="4.1"/><rect class="cls-10" x="85.81" y="210.68" width="3.77" height="4.1"/><rect class="cls-10" x="86.99" y="210.68" width="1.4" height="1.26"/><rect class="cls-10" x="86.99" y="213.53" width="1.4" height="1.26"/><rect class="cls-2" x="90.15" y="210.68" width="47.19" height="4.1"/><rect class="cls-10" x="90.15" y="210.68" width="3.77" height="4.1"/><rect class="cls-10" x="91.33" y="210.68" width="1.4" height="1.26"/><rect class="cls-10" x="91.33" y="213.53" width="1.4" height="1.26"/><rect class="cls-2" x="94.49" y="210.68" width="47.19" height="4.1"/><rect class="cls-10" x="94.49" y="210.68" width="3.77" height="4.1"/><rect class="cls-10" x="95.68" y="210.68" width="1.4" height="1.26"/><rect class="cls-10" x="95.68" y="213.53" width="1.4" height="1.26"/><rect class="cls-2" x="77.84" y="206.58" width="47.19" height="4.1"/><rect class="cls-10" x="77.84" y="206.58" width="3.77" height="4.1"/><rect class="cls-10" x="79.02" y="206.58" width="1.4" height="1.26"/><rect class="cls-10" x="79.02" y="209.43" width="1.4" height="1.26"/><rect class="cls-2" x="82.18" y="206.58" width="47.19" height="4.1"/><rect class="cls-10" x="82.18" y="206.58" width="3.77" height="4.1"/><rect class="cls-10" x="83.36" y="206.58" width="1.4" height="1.26"/><rect class="cls-10" x="83.36" y="209.43" width="1.4" height="1.26"/><rect class="cls-2" x="86.52" y="206.58" width="47.19" height="4.1"/><rect class="cls-10" x="86.52" y="206.58" width="3.77" height="4.1"/><rect class="cls-10" x="87.7" y="206.58" width="1.4" height="1.26"/><rect class="cls-10" x="87.7" y="209.43" width="1.4" height="1.26"/><rect class="cls-2" x="90.86" y="206.58" width="47.19" height="4.1"/><rect class="cls-10" x="90.86" y="206.58" width="3.77" height="4.1"/><rect class="cls-10" x="92.05" y="206.58" width="1.4" height="1.26"/><rect class="cls-10" x="92.05" y="209.43" width="1.4" height="1.26"/><rect class="cls-2" x="95.21" y="206.58" width="47.19" height="4.1"/><rect class="cls-10" x="95.21" y="206.58" width="3.77" height="4.1"/><rect class="cls-10" x="96.39" y="206.58" width="1.4" height="1.26"/><rect class="cls-10" x="96.39" y="209.43" width="1.4" height="1.26"/><rect class="cls-2" x="76.36" y="202.48" width="47.19" height="4.1"/><rect class="cls-10" x="76.36" y="202.48" width="3.77" height="4.1"/><rect class="cls-10" x="77.55" y="202.48" width="1.4" height="1.26"/><rect class="cls-10" x="77.55" y="205.32" width="1.4" height="1.26"/><rect class="cls-2" x="80.7" y="202.48" width="47.19" height="4.1"/><rect class="cls-10" x="80.7" y="202.48" width="3.77" height="4.1"/><rect class="cls-10" x="81.89" y="202.48" width="1.4" height="1.26"/><rect class="cls-10" x="81.89" y="205.32" width="1.4" height="1.26"/><rect class="cls-2" x="85.05" y="202.48" width="47.19" height="4.1"/><rect class="cls-10" x="85.05" y="202.48" width="3.77" height="4.1"/><rect class="cls-10" x="86.23" y="202.48" width="1.4" height="1.26"/><rect class="cls-10" x="86.23" y="205.32" width="1.4" height="1.26"/><rect class="cls-2" x="89.39" y="202.48" width="47.19" height="4.1"/><rect class="cls-10" x="89.39" y="202.48" width="3.77" height="4.1"/><rect class="cls-10" x="90.57" y="202.48" width="1.4" height="1.26"/><rect class="cls-10" x="90.57" y="205.32" width="1.4" height="1.26"/><rect class="cls-2" x="93.73" y="202.48" width="47.19" height="4.1"/><rect class="cls-10" x="93.73" y="202.48" width="3.77" height="4.1"/><rect class="cls-10" x="94.91" y="202.48" width="1.4" height="1.26"/><rect class="cls-10" x="94.91" y="205.32" width="1.4" height="1.26"/><rect class="cls-2" x="77.55" y="198.37" width="47.19" height="4.1"/><rect class="cls-10" x="77.55" y="198.37" width="3.77" height="4.1"/><rect class="cls-10" x="78.73" y="198.37" width="1.4" height="1.26"/><rect class="cls-10" x="78.73" y="201.22" width="1.4" height="1.26"/><rect class="cls-2" x="81.89" y="198.37" width="47.19" height="4.1"/><rect class="cls-10" x="81.89" y="198.37" width="3.77" height="4.1"/><rect class="cls-10" x="83.07" y="198.37" width="1.4" height="1.26"/><rect class="cls-10" x="83.07" y="201.22" width="1.4" height="1.26"/><rect class="cls-2" x="86.23" y="198.37" width="47.19" height="4.1"/><rect class="cls-10" x="86.23" y="198.37" width="3.77" height="4.1"/><rect class="cls-10" x="87.41" y="198.37" width="1.4" height="1.26"/><rect class="cls-10" x="87.41" y="201.22" width="1.4" height="1.26"/><rect class="cls-2" x="90.57" y="198.37" width="47.19" height="4.1"/><rect class="cls-10" x="90.57" y="198.37" width="3.77" height="4.1"/><rect class="cls-10" x="91.76" y="198.37" width="1.4" height="1.26"/><rect class="cls-10" x="91.76" y="201.22" width="1.4" height="1.26"/><rect class="cls-2" x="94.91" y="198.37" width="47.19" height="4.1"/><rect class="cls-10" x="94.91" y="198.37" width="3.77" height="4.1"/><rect class="cls-10" x="96.1" y="198.37" width="1.4" height="1.26"/><rect class="cls-10" x="96.1" y="201.22" width="1.4" height="1.26"/><rect class="cls-2" x="77.12" y="194.27" width="47.19" height="4.1"/><rect class="cls-10" x="77.12" y="194.27" width="3.77" height="4.1"/><rect class="cls-10" x="78.31" y="194.27" width="1.4" height="1.26"/><rect class="cls-10" x="78.31" y="197.12" width="1.4" height="1.26"/><rect class="cls-2" x="81.47" y="194.27" width="47.19" height="4.1"/><rect class="cls-10" x="81.47" y="194.27" width="3.77" height="4.1"/><rect class="cls-10" x="82.65" y="194.27" width="1.4" height="1.26"/><rect class="cls-10" x="82.65" y="197.12" width="1.4" height="1.26"/><rect class="cls-2" x="85.81" y="194.27" width="47.19" height="4.1"/><rect class="cls-10" x="85.81" y="194.27" width="3.77" height="4.1"/><rect class="cls-10" x="86.99" y="194.27" width="1.4" height="1.26"/><rect class="cls-10" x="86.99" y="197.12" width="1.4" height="1.26"/><rect class="cls-2" x="90.15" y="194.27" width="47.19" height="4.1"/><rect class="cls-10" x="90.15" y="194.27" width="3.77" height="4.1"/><rect class="cls-10" x="91.33" y="194.27" width="1.4" height="1.26"/><rect class="cls-10" x="91.33" y="197.12" width="1.4" height="1.26"/><rect class="cls-2" x="94.49" y="194.27" width="47.19" height="4.1"/><rect class="cls-10" x="94.49" y="194.27" width="3.77" height="4.1"/><rect class="cls-10" x="95.68" y="194.27" width="1.4" height="1.26"/><rect class="cls-10" x="95.68" y="197.12" width="1.4" height="1.26"/><rect class="cls-2" x="76.36" y="190.17" width="47.19" height="4.1"/><rect class="cls-10" x="76.36" y="190.17" width="3.77" height="4.1"/><rect class="cls-10" x="77.55" y="190.17" width="1.4" height="1.26"/><rect class="cls-10" x="77.55" y="193.02" width="1.4" height="1.26"/><rect class="cls-2" x="80.7" y="190.17" width="47.19" height="4.1"/><rect class="cls-10" x="80.7" y="190.17" width="3.77" height="4.1"/><rect class="cls-10" x="81.89" y="190.17" width="1.4" height="1.26"/><rect class="cls-10" x="81.89" y="193.02" width="1.4" height="1.26"/><rect class="cls-2" x="85.05" y="190.17" width="47.19" height="4.1"/><rect class="cls-10" x="85.05" y="190.17" width="3.77" height="4.1"/><rect class="cls-10" x="86.23" y="190.17" width="1.4" height="1.26"/><rect class="cls-10" x="86.23" y="193.02" width="1.4" height="1.26"/><rect class="cls-2" x="89.39" y="190.17" width="47.19" height="4.1"/><rect class="cls-10" x="89.39" y="190.17" width="3.77" height="4.1"/><rect class="cls-10" x="90.57" y="190.17" width="1.4" height="1.26"/><rect class="cls-10" x="90.57" y="193.02" width="1.4" height="1.26"/><rect class="cls-2" x="93.73" y="190.17" width="47.19" height="4.1"/><rect class="cls-10" x="93.73" y="190.17" width="3.77" height="4.1"/><rect class="cls-10" x="94.91" y="190.17" width="1.4" height="1.26"/><rect class="cls-10" x="94.91" y="193.02" width="1.4" height="1.26"/><rect class="cls-2" x="77.12" y="186.07" width="47.19" height="4.1"/><rect class="cls-10" x="77.12" y="186.07" width="3.77" height="4.1"/><rect class="cls-10" x="78.31" y="186.07" width="1.4" height="1.26"/><rect class="cls-10" x="78.31" y="188.91" width="1.4" height="1.26"/><rect class="cls-2" x="81.47" y="186.07" width="47.19" height="4.1"/><rect class="cls-10" x="81.47" y="186.07" width="3.77" height="4.1"/><rect class="cls-10" x="82.65" y="186.07" width="1.4" height="1.26"/><rect class="cls-10" x="82.65" y="188.91" width="1.4" height="1.26"/><rect class="cls-2" x="85.81" y="186.07" width="47.19" height="4.1"/><rect class="cls-10" x="85.81" y="186.07" width="3.77" height="4.1"/><rect class="cls-10" x="86.99" y="186.07" width="1.4" height="1.26"/><rect class="cls-10" x="86.99" y="188.91" width="1.4" height="1.26"/><rect class="cls-2" x="90.15" y="186.07" width="47.19" height="4.1"/><rect class="cls-10" x="90.15" y="186.07" width="3.77" height="4.1"/><rect class="cls-10" x="91.33" y="186.07" width="1.4" height="1.26"/><rect class="cls-10" x="91.33" y="188.91" width="1.4" height="1.26"/><rect class="cls-2" x="94.49" y="186.07" width="47.19" height="4.1"/><rect class="cls-10" x="94.49" y="186.07" width="3.77" height="4.1"/><rect class="cls-10" x="95.68" y="186.07" width="1.4" height="1.26"/><rect class="cls-10" x="95.68" y="188.91" width="1.4" height="1.26"/><rect class="cls-11" x="97.5" y="190.17" width="43.42" height="1.26"/><rect class="cls-11" x="97.5" y="193.92" width="43.42" height="0.35"/><rect class="cls-11" x="98.26" y="198.02" width="43.42" height="0.35"/><rect class="cls-11" x="97.5" y="206.23" width="43.42" height="0.35"/><rect class="cls-11" x="97.5" y="202.48" width="43.42" height="1.12"/><rect class="cls-11" x="98.26" y="210.75" width="43.42" height="1.12"/><rect class="cls-4" x="118.09" y="186.07" width="4.53" height="28.72"/><polygon class="cls-15" points="109.38 158.47 100.84 216.18 146.8 216.18 109.38 158.47"/><rect class="cls-4" x="70.55" y="214.78" width="77.67" height="2.79"/><rect class="cls-12" x="98.83" y="214.78" width="49.39" height="2.79"/><path class="cls-2" d="M341.84,6.28v5.25a1.13,1.13,0,0,1-1.13,1.13h-18a1.14,1.14,0,0,1-1.14-1.13V6.28a1.14,1.14,0,0,1,1.14-1.12h18A1.13,1.13,0,0,1,341.84,6.28Z"/><path class="cls-12" d="M341.84,6.28v5.25a1.13,1.13,0,0,1-1.13,1.13h-17a1.14,1.14,0,0,1-1.13-1.13V6.28a1.13,1.13,0,0,1,1.13-1.12h17A1.13,1.13,0,0,1,341.84,6.28Z"/><path class="cls-2" d="M356.88,46.26h-25a3.13,3.13,0,0,0-3.05,2.45L325.48,64a3.07,3.07,0,0,0-.08.67v6.64a3.13,3.13,0,0,0,3.13,3.12h28.35A3.13,3.13,0,0,0,360,71.28V49.39A3.13,3.13,0,0,0,356.88,46.26Z"/><path class="cls-6" d="M341.91,46.26a3.13,3.13,0,0,0-3.05,2.45L335.48,64a3.08,3.08,0,0,0-.08.68v6.63a3.13,3.13,0,0,0,3.13,3.13h-10a3.13,3.13,0,0,1-3.13-3.13V64.65a3.08,3.08,0,0,1,.08-.68l3.38-15.26a3.13,3.13,0,0,1,3.05-2.45Z"/><path class="cls-4" d="M339,46.9a3.12,3.12,0,0,0-1.17,1.81L334.48,64a3.08,3.08,0,0,0-.08.68v5.4H326V65.29a3.08,3.08,0,0,1,.07-.68l3.5-15.8A2.44,2.44,0,0,1,332,46.9Z"/><path class="cls-4" d="M346.76,47.26h-4.84a2.1,2.1,0,0,0-2.08,1.66L336.56,63.7h10.2Z"/><path class="cls-4" d="M352.26,47.26h-4.69V63.7l4.61-2.56A1.52,1.52,0,0,0,353,59.8V48A.71.71,0,0,0,352.26,47.26Z"/></g></svg>