<svg id="Layer_1" data-name="Layer 1" xmlns="http://www.w3.org/2000/svg" viewBox="0 0 277 112"><defs><style>.cls-1,.cls-2,.cls-5{fill:none;stroke:#346b9e;stroke-width:6px;}.cls-1{stroke-linecap:round;}.cls-1,.cls-2{stroke-miterlimit:10;}.cls-3{fill:#a6c0d9;}.cls-4{fill:#326ba0;}.cls-5{stroke-linecap:square;stroke-linejoin:bevel;}</style></defs><title>logo</title><line class="cls-1" x1="16" y1="72" x2="16" y2="97"/><line class="cls-2" x1="82" y1="70" x2="82" y2="77"/><line class="cls-2" x1="96" y1="71" x2="96" y2="100"/><path class="cls-3" d="M32,63H162S88,64,88,45s89-33,89-33S121,15,74,36c0,0-24,12-35,21S32,63,32,63Z"/><path class="cls-4" d="M181,13s-72,10.5-72,30,87,18,87,18h48s-46.45-2.13-77-7c-14.17-2.26-24.76-7.14-26-9a8.51,8.51,0,0,1,0-10c2.67-3.66,12.8-7.86,16-10C163,21,181,13,181,13Z"/><path class="cls-3" d="M189,17s-36,8-36,20c0,10,26,16,26,16s35,4,39,4c7,0-33-9-33-9s-18-7-14-14S189,17,189,17Z"/><line class="cls-1" x1="70" y1="97" x2="16" y2="97"/><line class="cls-5" x1="82" y1="98" x2="82" y2="85"/><path class="cls-2" d="M93,73h48s11,1,12,8,1,10-5,13l-6,3H94"/><path class="cls-1" d="M163,73s28,25,56,0"/><line class="cls-1" x1="191" y1="102" x2="191" y2="85"/><path class="cls-1" d="M217,100l16.88-20.43a47.52,47.52,0,0,0,2.89-4c1.54-2.34,5.48-6.09,12.23,1.41a216.66,216.66,0,0,1,14,17s1,0,1,2-29,2-29,2"/></svg>